%TF.GenerationSoftware,KiCad,Pcbnew,(6.0.9-0)*%
%TF.CreationDate,2023-01-04T12:54:03-08:00*%
%TF.ProjectId,TMC2300-BOB v1.0,544d4332-3330-4302-9d42-4f422076312e,rev?*%
%TF.SameCoordinates,Original*%
%TF.FileFunction,Legend,Top*%
%TF.FilePolarity,Positive*%
%FSLAX46Y46*%
G04 Gerber Fmt 4.6, Leading zero omitted, Abs format (unit mm)*
G04 Created by KiCad (PCBNEW (6.0.9-0)) date 2023-01-04 12:54:03*
%MOMM*%
%LPD*%
G01*
G04 APERTURE LIST*
%ADD10C,0.100000*%
%ADD11C,0.150000*%
%ADD12C,0.120000*%
G04 APERTURE END LIST*
D10*
X17238542Y8354971D02*
X17352828Y8354971D01*
X17409971Y8326400D01*
X17467114Y8269257D01*
X17495685Y8154971D01*
X17495685Y7954971D01*
X17467114Y7840685D01*
X17409971Y7783542D01*
X17352828Y7754971D01*
X17238542Y7754971D01*
X17181400Y7783542D01*
X17124257Y7840685D01*
X17095685Y7954971D01*
X17095685Y8154971D01*
X17124257Y8269257D01*
X17181400Y8326400D01*
X17238542Y8354971D01*
X17724257Y7926400D02*
X18009971Y7926400D01*
X17667114Y7754971D02*
X17867114Y8354971D01*
X18067114Y7754971D01*
X18238542Y8297828D02*
X18267114Y8326400D01*
X18324257Y8354971D01*
X18467114Y8354971D01*
X18524257Y8326400D01*
X18552828Y8297828D01*
X18581400Y8240685D01*
X18581400Y8183542D01*
X18552828Y8097828D01*
X18209971Y7754971D01*
X18581400Y7754971D01*
X17340142Y6170571D02*
X17454428Y6170571D01*
X17511571Y6142000D01*
X17568714Y6084857D01*
X17597285Y5970571D01*
X17597285Y5770571D01*
X17568714Y5656285D01*
X17511571Y5599142D01*
X17454428Y5570571D01*
X17340142Y5570571D01*
X17283000Y5599142D01*
X17225857Y5656285D01*
X17197285Y5770571D01*
X17197285Y5970571D01*
X17225857Y6084857D01*
X17283000Y6142000D01*
X17340142Y6170571D01*
X17825857Y5742000D02*
X18111571Y5742000D01*
X17768714Y5570571D02*
X17968714Y6170571D01*
X18168714Y5570571D01*
X18683000Y5570571D02*
X18340142Y5570571D01*
X18511571Y5570571D02*
X18511571Y6170571D01*
X18454428Y6084857D01*
X18397285Y6027714D01*
X18340142Y5999142D01*
X17289342Y4290971D02*
X17403628Y4290971D01*
X17460771Y4262400D01*
X17517914Y4205257D01*
X17546485Y4090971D01*
X17546485Y3890971D01*
X17517914Y3776685D01*
X17460771Y3719542D01*
X17403628Y3690971D01*
X17289342Y3690971D01*
X17232200Y3719542D01*
X17175057Y3776685D01*
X17146485Y3890971D01*
X17146485Y4090971D01*
X17175057Y4205257D01*
X17232200Y4262400D01*
X17289342Y4290971D01*
X18003628Y4005257D02*
X18089342Y3976685D01*
X18117914Y3948114D01*
X18146485Y3890971D01*
X18146485Y3805257D01*
X18117914Y3748114D01*
X18089342Y3719542D01*
X18032200Y3690971D01*
X17803628Y3690971D01*
X17803628Y4290971D01*
X18003628Y4290971D01*
X18060771Y4262400D01*
X18089342Y4233828D01*
X18117914Y4176685D01*
X18117914Y4119542D01*
X18089342Y4062400D01*
X18060771Y4033828D01*
X18003628Y4005257D01*
X17803628Y4005257D01*
X18717914Y3690971D02*
X18375057Y3690971D01*
X18546485Y3690971D02*
X18546485Y4290971D01*
X18489342Y4205257D01*
X18432200Y4148114D01*
X18375057Y4119542D01*
X17340142Y2284371D02*
X17454428Y2284371D01*
X17511571Y2255800D01*
X17568714Y2198657D01*
X17597285Y2084371D01*
X17597285Y1884371D01*
X17568714Y1770085D01*
X17511571Y1712942D01*
X17454428Y1684371D01*
X17340142Y1684371D01*
X17283000Y1712942D01*
X17225857Y1770085D01*
X17197285Y1884371D01*
X17197285Y2084371D01*
X17225857Y2198657D01*
X17283000Y2255800D01*
X17340142Y2284371D01*
X18054428Y1998657D02*
X18140142Y1970085D01*
X18168714Y1941514D01*
X18197285Y1884371D01*
X18197285Y1798657D01*
X18168714Y1741514D01*
X18140142Y1712942D01*
X18083000Y1684371D01*
X17854428Y1684371D01*
X17854428Y2284371D01*
X18054428Y2284371D01*
X18111571Y2255800D01*
X18140142Y2227228D01*
X18168714Y2170085D01*
X18168714Y2112942D01*
X18140142Y2055800D01*
X18111571Y2027228D01*
X18054428Y1998657D01*
X17854428Y1998657D01*
X18425857Y2227228D02*
X18454428Y2255800D01*
X18511571Y2284371D01*
X18654428Y2284371D01*
X18711571Y2255800D01*
X18740142Y2227228D01*
X18768714Y2170085D01*
X18768714Y2112942D01*
X18740142Y2027228D01*
X18397285Y1684371D01*
X18768714Y1684371D01*
D11*
X1541666Y1722619D02*
X1541666Y1008333D01*
X1494047Y865476D01*
X1398809Y770238D01*
X1255952Y722619D01*
X1160714Y722619D01*
X1970238Y1627380D02*
X2017857Y1675000D01*
X2113095Y1722619D01*
X2351190Y1722619D01*
X2446428Y1675000D01*
X2494047Y1627380D01*
X2541666Y1532142D01*
X2541666Y1436904D01*
X2494047Y1294047D01*
X1922619Y722619D01*
X2541666Y722619D01*
D10*
X16779285Y13157142D02*
X16865000Y13128571D01*
X17007857Y13128571D01*
X17065000Y13157142D01*
X17093571Y13185714D01*
X17122142Y13242857D01*
X17122142Y13300000D01*
X17093571Y13357142D01*
X17065000Y13385714D01*
X17007857Y13414285D01*
X16893571Y13442857D01*
X16836428Y13471428D01*
X16807857Y13500000D01*
X16779285Y13557142D01*
X16779285Y13614285D01*
X16807857Y13671428D01*
X16836428Y13700000D01*
X16893571Y13728571D01*
X17036428Y13728571D01*
X17122142Y13700000D01*
X17322142Y13728571D02*
X17465000Y13128571D01*
X17579285Y13557142D01*
X17693571Y13128571D01*
X17836428Y13728571D01*
X18065000Y13357142D02*
X18522142Y13357142D01*
X18293571Y13128571D02*
X18293571Y13585714D01*
X16754285Y11607142D02*
X16840000Y11578571D01*
X16982857Y11578571D01*
X17040000Y11607142D01*
X17068571Y11635714D01*
X17097142Y11692857D01*
X17097142Y11750000D01*
X17068571Y11807142D01*
X17040000Y11835714D01*
X16982857Y11864285D01*
X16868571Y11892857D01*
X16811428Y11921428D01*
X16782857Y11950000D01*
X16754285Y12007142D01*
X16754285Y12064285D01*
X16782857Y12121428D01*
X16811428Y12150000D01*
X16868571Y12178571D01*
X17011428Y12178571D01*
X17097142Y12150000D01*
X17297142Y12178571D02*
X17440000Y11578571D01*
X17554285Y12007142D01*
X17668571Y11578571D01*
X17811428Y12178571D01*
X18040000Y11807142D02*
X18497142Y11807142D01*
X3618571Y6153571D02*
X3332857Y6153571D01*
X3332857Y6753571D01*
X3818571Y6382142D02*
X4275714Y6382142D01*
X3568571Y1478571D02*
X3282857Y1478571D01*
X3282857Y2078571D01*
X3768571Y1707142D02*
X4225714Y1707142D01*
X3997142Y1478571D02*
X3997142Y1935714D01*
D11*
%TO.C,R1*%
X15022533Y8673819D02*
X14689200Y9150009D01*
X14451104Y8673819D02*
X14451104Y9673819D01*
X14832057Y9673819D01*
X14927295Y9626200D01*
X14974914Y9578580D01*
X15022533Y9483342D01*
X15022533Y9340485D01*
X14974914Y9245247D01*
X14927295Y9197628D01*
X14832057Y9150009D01*
X14451104Y9150009D01*
X15974914Y8673819D02*
X15403485Y8673819D01*
X15689200Y8673819D02*
X15689200Y9673819D01*
X15593961Y9530961D01*
X15498723Y9435723D01*
X15403485Y9388104D01*
%TO.C,R2*%
X15034733Y3162019D02*
X14701400Y3638209D01*
X14463304Y3162019D02*
X14463304Y4162019D01*
X14844257Y4162019D01*
X14939495Y4114400D01*
X14987114Y4066780D01*
X15034733Y3971542D01*
X15034733Y3828685D01*
X14987114Y3733447D01*
X14939495Y3685828D01*
X14844257Y3638209D01*
X14463304Y3638209D01*
X15415685Y4066780D02*
X15463304Y4114400D01*
X15558542Y4162019D01*
X15796638Y4162019D01*
X15891876Y4114400D01*
X15939495Y4066780D01*
X15987114Y3971542D01*
X15987114Y3876304D01*
X15939495Y3733447D01*
X15368066Y3162019D01*
X15987114Y3162019D01*
%TO.C,C5*%
X5233333Y5167857D02*
X5185714Y5120238D01*
X5042857Y5072619D01*
X4947619Y5072619D01*
X4804761Y5120238D01*
X4709523Y5215476D01*
X4661904Y5310714D01*
X4614285Y5501190D01*
X4614285Y5644047D01*
X4661904Y5834523D01*
X4709523Y5929761D01*
X4804761Y6025000D01*
X4947619Y6072619D01*
X5042857Y6072619D01*
X5185714Y6025000D01*
X5233333Y5977380D01*
X6138095Y6072619D02*
X5661904Y6072619D01*
X5614285Y5596428D01*
X5661904Y5644047D01*
X5757142Y5691666D01*
X5995238Y5691666D01*
X6090476Y5644047D01*
X6138095Y5596428D01*
X6185714Y5501190D01*
X6185714Y5263095D01*
X6138095Y5167857D01*
X6090476Y5120238D01*
X5995238Y5072619D01*
X5757142Y5072619D01*
X5661904Y5120238D01*
X5614285Y5167857D01*
%TO.C,IC1*%
X15242380Y4713809D02*
X14242380Y4713809D01*
X15147142Y5761428D02*
X15194761Y5713809D01*
X15242380Y5570952D01*
X15242380Y5475714D01*
X15194761Y5332857D01*
X15099523Y5237619D01*
X15004285Y5190000D01*
X14813809Y5142380D01*
X14670952Y5142380D01*
X14480476Y5190000D01*
X14385238Y5237619D01*
X14290000Y5332857D01*
X14242380Y5475714D01*
X14242380Y5570952D01*
X14290000Y5713809D01*
X14337619Y5761428D01*
X15242380Y6713809D02*
X15242380Y6142380D01*
X15242380Y6428095D02*
X14242380Y6428095D01*
X14385238Y6332857D01*
X14480476Y6237619D01*
X14528095Y6142380D01*
%TO.C,J3*%
X19707266Y15508219D02*
X19707266Y14793933D01*
X19659647Y14651076D01*
X19564409Y14555838D01*
X19421552Y14508219D01*
X19326314Y14508219D01*
X20088219Y15508219D02*
X20707266Y15508219D01*
X20373933Y15127266D01*
X20516790Y15127266D01*
X20612028Y15079647D01*
X20659647Y15032028D01*
X20707266Y14936790D01*
X20707266Y14698695D01*
X20659647Y14603457D01*
X20612028Y14555838D01*
X20516790Y14508219D01*
X20231076Y14508219D01*
X20135838Y14555838D01*
X20088219Y14603457D01*
%TO.C,SW2*%
X18323333Y19664761D02*
X18180476Y19712380D01*
X17942380Y19712380D01*
X17847142Y19664761D01*
X17799523Y19617142D01*
X17751904Y19521904D01*
X17751904Y19426666D01*
X17799523Y19331428D01*
X17847142Y19283809D01*
X17942380Y19236190D01*
X18132857Y19188571D01*
X18228095Y19140952D01*
X18275714Y19093333D01*
X18323333Y18998095D01*
X18323333Y18902857D01*
X18275714Y18807619D01*
X18228095Y18760000D01*
X18132857Y18712380D01*
X17894761Y18712380D01*
X17751904Y18760000D01*
X17418571Y18712380D02*
X17180476Y19712380D01*
X16990000Y18998095D01*
X16799523Y19712380D01*
X16561428Y18712380D01*
X16228095Y18807619D02*
X16180476Y18760000D01*
X16085238Y18712380D01*
X15847142Y18712380D01*
X15751904Y18760000D01*
X15704285Y18807619D01*
X15656666Y18902857D01*
X15656666Y18998095D01*
X15704285Y19140952D01*
X16275714Y19712380D01*
X15656666Y19712380D01*
%TO.C,C7*%
X5807142Y18713333D02*
X5854761Y18665714D01*
X5902380Y18522857D01*
X5902380Y18427619D01*
X5854761Y18284761D01*
X5759523Y18189523D01*
X5664285Y18141904D01*
X5473809Y18094285D01*
X5330952Y18094285D01*
X5140476Y18141904D01*
X5045238Y18189523D01*
X4950000Y18284761D01*
X4902380Y18427619D01*
X4902380Y18522857D01*
X4950000Y18665714D01*
X4997619Y18713333D01*
X4902380Y19046666D02*
X4902380Y19713333D01*
X5902380Y19284761D01*
%TO.C,D1*%
X6427380Y15986904D02*
X5427380Y15986904D01*
X5427380Y16225000D01*
X5475000Y16367857D01*
X5570238Y16463095D01*
X5665476Y16510714D01*
X5855952Y16558333D01*
X5998809Y16558333D01*
X6189285Y16510714D01*
X6284523Y16463095D01*
X6379761Y16367857D01*
X6427380Y16225000D01*
X6427380Y15986904D01*
X6427380Y17510714D02*
X6427380Y16939285D01*
X6427380Y17225000D02*
X5427380Y17225000D01*
X5570238Y17129761D01*
X5665476Y17034523D01*
X5713095Y16939285D01*
%TO.C,J1*%
X19747666Y10021819D02*
X19747666Y9307533D01*
X19700047Y9164676D01*
X19604809Y9069438D01*
X19461952Y9021819D01*
X19366714Y9021819D01*
X20747666Y9021819D02*
X20176238Y9021819D01*
X20461952Y9021819D02*
X20461952Y10021819D01*
X20366714Y9878961D01*
X20271476Y9783723D01*
X20176238Y9736104D01*
%TO.C,C6*%
X8358333Y12112857D02*
X8310714Y12065238D01*
X8167857Y12017619D01*
X8072619Y12017619D01*
X7929761Y12065238D01*
X7834523Y12160476D01*
X7786904Y12255714D01*
X7739285Y12446190D01*
X7739285Y12589047D01*
X7786904Y12779523D01*
X7834523Y12874761D01*
X7929761Y12970000D01*
X8072619Y13017619D01*
X8167857Y13017619D01*
X8310714Y12970000D01*
X8358333Y12922380D01*
X9215476Y13017619D02*
X9025000Y13017619D01*
X8929761Y12970000D01*
X8882142Y12922380D01*
X8786904Y12779523D01*
X8739285Y12589047D01*
X8739285Y12208095D01*
X8786904Y12112857D01*
X8834523Y12065238D01*
X8929761Y12017619D01*
X9120238Y12017619D01*
X9215476Y12065238D01*
X9263095Y12112857D01*
X9310714Y12208095D01*
X9310714Y12446190D01*
X9263095Y12541428D01*
X9215476Y12589047D01*
X9120238Y12636666D01*
X8929761Y12636666D01*
X8834523Y12589047D01*
X8786904Y12541428D01*
X8739285Y12446190D01*
%TO.C,L1*%
X3594833Y12572619D02*
X3118642Y12572619D01*
X3118642Y13572619D01*
X4451976Y12572619D02*
X3880547Y12572619D01*
X4166261Y12572619D02*
X4166261Y13572619D01*
X4071023Y13429761D01*
X3975785Y13334523D01*
X3880547Y13286904D01*
%TO.C,U2*%
X12598495Y11483419D02*
X12598495Y10673895D01*
X12646114Y10578657D01*
X12693733Y10531038D01*
X12788971Y10483419D01*
X12979447Y10483419D01*
X13074685Y10531038D01*
X13122304Y10578657D01*
X13169923Y10673895D01*
X13169923Y11483419D01*
X13598495Y11388180D02*
X13646114Y11435800D01*
X13741352Y11483419D01*
X13979447Y11483419D01*
X14074685Y11435800D01*
X14122304Y11388180D01*
X14169923Y11292942D01*
X14169923Y11197704D01*
X14122304Y11054847D01*
X13550876Y10483419D01*
X14169923Y10483419D01*
D12*
%TO.C,R1*%
X14951942Y8218700D02*
X15426458Y8218700D01*
X14951942Y7173700D02*
X15426458Y7173700D01*
%TO.C,R2*%
X14964142Y2706900D02*
X15438658Y2706900D01*
X14964142Y1661900D02*
X15438658Y1661900D01*
%TO.C,R3*%
X7519400Y3275359D02*
X7519400Y3582641D01*
X8279400Y3275359D02*
X8279400Y3582641D01*
%TO.C,R4*%
X8637000Y3273359D02*
X8637000Y3580641D01*
X9397000Y3273359D02*
X9397000Y3580641D01*
%TO.C,C5*%
X5460000Y3034420D02*
X5460000Y3315580D01*
X4440000Y3034420D02*
X4440000Y3315580D01*
%TO.C,IC1*%
X13340000Y3720000D02*
X13340000Y3270000D01*
X13340000Y6040000D02*
X13340000Y6490000D01*
X13340000Y3270000D02*
X12890000Y3270000D01*
X10120000Y6040000D02*
X10120000Y6490000D01*
X10120000Y6490000D02*
X10570000Y6490000D01*
X10120000Y3720000D02*
X10120000Y3270000D01*
X10120000Y3270000D02*
X10570000Y3270000D01*
%TO.C,SW2*%
X7574000Y18752800D02*
X7574000Y19667200D01*
X12654000Y17736800D02*
X10672800Y17736800D01*
X14228800Y18752800D02*
X14228800Y19667200D01*
%TO.C,C7*%
X2545000Y17501252D02*
X2545000Y16978748D01*
X4015000Y17501252D02*
X4015000Y16978748D01*
%TO.C,D1*%
X6750000Y15350000D02*
X6750000Y12800000D01*
X5050000Y15350000D02*
X5050000Y12800000D01*
X6750000Y15350000D02*
X5050000Y15350000D01*
%TO.C,C6*%
X8665580Y13390000D02*
X8384420Y13390000D01*
X8665580Y14410000D02*
X8384420Y14410000D01*
%TO.C,R6*%
X16196542Y10247100D02*
X16671058Y10247100D01*
X16196542Y11292100D02*
X16671058Y11292100D01*
%TO.C,R5*%
X17346959Y14377400D02*
X17654241Y14377400D01*
X17346959Y15137400D02*
X17654241Y15137400D01*
%TO.C,L1*%
X967500Y7815000D02*
X1992500Y7815000D01*
X967500Y12035000D02*
X967500Y11010000D01*
X6560000Y7815000D02*
X6560000Y8840000D01*
X6560000Y12035000D02*
X5535000Y12035000D01*
X967500Y12035000D02*
X1992500Y12035000D01*
X967500Y7815000D02*
X967500Y8840000D01*
X6560000Y7815000D02*
X5535000Y7815000D01*
X6560000Y12035000D02*
X6560000Y11010000D01*
%TO.C,U2*%
X13360400Y14995800D02*
X14860400Y14995800D01*
X13360400Y11775800D02*
X11860400Y11775800D01*
X13360400Y11775800D02*
X16235400Y11775800D01*
X13360400Y14995800D02*
X11860400Y14995800D01*
%TD*%
M02*
