%TF.GenerationSoftware,KiCad,Pcbnew,(6.0.9-0)*%
%TF.CreationDate,2023-01-04T12:54:03-08:00*%
%TF.ProjectId,TMC2300-BOB v1.0,544d4332-3330-4302-9d42-4f422076312e,rev?*%
%TF.SameCoordinates,Original*%
%TF.FileFunction,Copper,L3,Inr*%
%TF.FilePolarity,Positive*%
%FSLAX46Y46*%
G04 Gerber Fmt 4.6, Leading zero omitted, Abs format (unit mm)*
G04 Created by KiCad (PCBNEW (6.0.9-0)) date 2023-01-04 12:54:03*
%MOMM*%
%LPD*%
G01*
G04 APERTURE LIST*
%TA.AperFunction,ComponentPad*%
%ADD10C,0.500000*%
%TD*%
%TA.AperFunction,ViaPad*%
%ADD11C,0.600000*%
%TD*%
G04 APERTURE END LIST*
D10*
%TO.N,GND*%
%TO.C,IC1*%
X11155000Y4305000D03*
X12305000Y4305000D03*
X11155000Y5455000D03*
X12305000Y5455000D03*
%TD*%
%TO.N,GND*%
%TO.C,U2*%
X12810400Y12735800D03*
X13910400Y12735800D03*
X13910400Y14035800D03*
X12810400Y14035800D03*
%TD*%
D11*
%TO.N,GND*%
X21200000Y15450000D03*
X11600000Y17500000D03*
X17119600Y7340600D03*
X6883400Y939800D03*
X17043400Y2311400D03*
X1041400Y15214600D03*
X7300000Y16800000D03*
X1041400Y16383000D03*
X16600000Y17900000D03*
%TO.N,/+Vbat*%
X4927600Y18719800D03*
X5791200Y18719800D03*
X11340000Y8750000D03*
X10464800Y15113000D03*
X11340000Y9710000D03*
X3100000Y1000000D03*
X5000000Y1000000D03*
X15559800Y4917800D03*
X11328400Y10693400D03*
X11277600Y15138400D03*
X14797800Y4917800D03*
X4927600Y17780000D03*
X5791200Y17780000D03*
X1300000Y1000000D03*
%TO.N,/VIO\u005C~{STDBY}*%
X6883400Y5435600D03*
X10236200Y3251200D03*
X7162800Y10820400D03*
%TO.N,/EN*%
X9245600Y5334000D03*
%TO.N,/UART_RX*%
X7594600Y4836100D03*
%TO.N,/DIR*%
X11543911Y7653911D03*
%TO.N,/STEP*%
X10150000Y7450000D03*
%TO.N,/UART_TX*%
X8147178Y1130142D03*
%TO.N,/SW2*%
X15595600Y16459200D03*
%TO.N,/SW1*%
X20751800Y17018000D03*
%TO.N,/DIM*%
X17297400Y12141200D03*
%TO.N,/LSR*%
X17145000Y13563600D03*
%TD*%
%TA.AperFunction,Conductor*%
%TO.N,/+Vbat*%
G36*
X16895111Y21007410D02*
G01*
X16899129Y21007110D01*
X17234191Y20968059D01*
X17332040Y20956655D01*
X17336039Y20956020D01*
X17547302Y20913481D01*
X17763294Y20869990D01*
X17767213Y20869031D01*
X18028055Y20793638D01*
X18185900Y20748014D01*
X18189741Y20746730D01*
X18597011Y20591550D01*
X18600730Y20589954D01*
X18993794Y20401670D01*
X18997358Y20399778D01*
X19041100Y20374185D01*
X19373531Y20179679D01*
X19376939Y20177491D01*
X19733644Y19927086D01*
X19736860Y19924624D01*
X20071674Y19645613D01*
X20074675Y19642894D01*
X20385298Y19337193D01*
X20388065Y19334235D01*
X20427682Y19288210D01*
X20568412Y19124716D01*
X20672385Y19003924D01*
X20674898Y19000748D01*
X20930968Y18648089D01*
X20933210Y18644717D01*
X20991392Y18548826D01*
X21159293Y18272101D01*
X21161242Y18268567D01*
X21355779Y17878559D01*
X21357435Y17874864D01*
X21516072Y17477710D01*
X21519095Y17470141D01*
X21520438Y17466329D01*
X21639552Y17077612D01*
X21648132Y17049612D01*
X21649157Y17045694D01*
X21740019Y16628955D01*
X21741996Y16619886D01*
X21742694Y16615902D01*
X21795442Y16218619D01*
X21796913Y16207536D01*
X21796891Y16194476D01*
X21795156Y16181738D01*
X21796856Y16176489D01*
X21797116Y16175686D01*
X21799500Y16160589D01*
X21799500Y15482447D01*
X21785148Y15447799D01*
X21779110Y15445298D01*
X21790417Y15438219D01*
X21799500Y15409800D01*
X21799500Y1028343D01*
X21798254Y1017363D01*
X21794344Y1000359D01*
X21795562Y994976D01*
X21796212Y992102D01*
X21797184Y976486D01*
X21784611Y848828D01*
X21782737Y839407D01*
X21740043Y698664D01*
X21736367Y689790D01*
X21667035Y560079D01*
X21661700Y552093D01*
X21599039Y475740D01*
X21568394Y438399D01*
X21561601Y431606D01*
X21447908Y338301D01*
X21439921Y332965D01*
X21310210Y263633D01*
X21301336Y259957D01*
X21160593Y217263D01*
X21151172Y215389D01*
X21023922Y202856D01*
X21008140Y203867D01*
X21006580Y204226D01*
X21005735Y204420D01*
X21005734Y204420D01*
X21000359Y205656D01*
X20982910Y201708D01*
X20972098Y200500D01*
X1028343Y200500D01*
X1017362Y201746D01*
X1005735Y204420D01*
X1005734Y204420D01*
X1000359Y205656D01*
X994976Y204438D01*
X992102Y203788D01*
X976486Y202816D01*
X848828Y215389D01*
X839407Y217263D01*
X698664Y259957D01*
X689790Y263633D01*
X560079Y332965D01*
X552092Y338301D01*
X438399Y431606D01*
X431606Y438399D01*
X400961Y475740D01*
X338300Y552093D01*
X332965Y560079D01*
X263633Y689790D01*
X259957Y698664D01*
X217263Y839407D01*
X215389Y848828D01*
X205821Y945977D01*
X6377791Y945977D01*
X6378243Y942520D01*
X6378243Y942517D01*
X6395360Y811620D01*
X6396380Y803821D01*
X6454120Y672597D01*
X6456366Y669925D01*
X6489140Y630936D01*
X6546370Y562852D01*
X6665713Y483410D01*
X6802557Y440658D01*
X6806047Y440594D01*
X6825958Y440229D01*
X6945899Y438030D01*
X7084217Y475740D01*
X7087188Y477564D01*
X7087190Y477565D01*
X7203418Y548929D01*
X7203421Y548931D01*
X7206391Y550755D01*
X7210978Y555822D01*
X7300255Y654455D01*
X7300256Y654456D01*
X7302600Y657046D01*
X7310135Y672597D01*
X7363589Y782928D01*
X7365110Y786067D01*
X7367560Y800626D01*
X7388583Y925584D01*
X7388583Y925587D01*
X7388896Y927446D01*
X7389047Y939800D01*
X7368723Y1081718D01*
X7343898Y1136319D01*
X7641569Y1136319D01*
X7642021Y1132862D01*
X7642021Y1132859D01*
X7659705Y997625D01*
X7660158Y994163D01*
X7717898Y862939D01*
X7720144Y860267D01*
X7779625Y789506D01*
X7810148Y753194D01*
X7929491Y673752D01*
X7932823Y672711D01*
X7982965Y657046D01*
X8066335Y631000D01*
X8069825Y630936D01*
X8089736Y630571D01*
X8209677Y628372D01*
X8347995Y666082D01*
X8350966Y667906D01*
X8350968Y667907D01*
X8467196Y739271D01*
X8467199Y739273D01*
X8470169Y741097D01*
X8479366Y751257D01*
X8564033Y844797D01*
X8564034Y844798D01*
X8566378Y847388D01*
X8573913Y862939D01*
X8612063Y941682D01*
X8628888Y976409D01*
X8630147Y983888D01*
X8652361Y1115926D01*
X8652361Y1115929D01*
X8652674Y1117788D01*
X8652825Y1130142D01*
X8632501Y1272060D01*
X8573162Y1402570D01*
X8566439Y1410373D01*
X8481858Y1508533D01*
X8479578Y1511179D01*
X8359273Y1589157D01*
X8221917Y1630235D01*
X8150859Y1630669D01*
X8082046Y1631090D01*
X8082044Y1631090D01*
X8078554Y1631111D01*
X8075199Y1630152D01*
X8075198Y1630152D01*
X7944062Y1592673D01*
X7940707Y1591714D01*
X7819458Y1515212D01*
X7724555Y1407754D01*
X7723072Y1404596D01*
X7723071Y1404594D01*
X7720684Y1399510D01*
X7663625Y1277979D01*
X7654603Y1220031D01*
X7642105Y1139765D01*
X7642105Y1139761D01*
X7641569Y1136319D01*
X7343898Y1136319D01*
X7309384Y1212228D01*
X7302661Y1220031D01*
X7218080Y1318191D01*
X7215800Y1320837D01*
X7095495Y1398815D01*
X6958139Y1439893D01*
X6887081Y1440327D01*
X6818268Y1440748D01*
X6818266Y1440748D01*
X6814776Y1440769D01*
X6811421Y1439810D01*
X6811420Y1439810D01*
X6680284Y1402331D01*
X6676929Y1401372D01*
X6555680Y1324870D01*
X6460777Y1217412D01*
X6399847Y1087637D01*
X6390622Y1028385D01*
X6378327Y949423D01*
X6378327Y949419D01*
X6377791Y945977D01*
X205821Y945977D01*
X202877Y975868D01*
X203906Y991733D01*
X205028Y996575D01*
X205028Y996579D01*
X205655Y999282D01*
X205656Y1000000D01*
X201727Y1017224D01*
X200500Y1028122D01*
X200500Y2317577D01*
X16537791Y2317577D01*
X16538243Y2314120D01*
X16538243Y2314117D01*
X16555927Y2178883D01*
X16556380Y2175421D01*
X16614120Y2044197D01*
X16706370Y1934452D01*
X16825713Y1855010D01*
X16962557Y1812258D01*
X16966047Y1812194D01*
X16985958Y1811829D01*
X17105899Y1809630D01*
X17244217Y1847340D01*
X17247188Y1849164D01*
X17247190Y1849165D01*
X17363418Y1920529D01*
X17363421Y1920531D01*
X17366391Y1922355D01*
X17375588Y1932515D01*
X17460255Y2026055D01*
X17460256Y2026056D01*
X17462600Y2028646D01*
X17470135Y2044197D01*
X17523589Y2154528D01*
X17525110Y2157667D01*
X17527560Y2172226D01*
X17548583Y2297184D01*
X17548583Y2297187D01*
X17548896Y2299046D01*
X17549047Y2311400D01*
X17528723Y2453318D01*
X17469384Y2583828D01*
X17462661Y2591631D01*
X17378080Y2689791D01*
X17375800Y2692437D01*
X17255495Y2770415D01*
X17118139Y2811493D01*
X17047081Y2811927D01*
X16978268Y2812348D01*
X16978266Y2812348D01*
X16974776Y2812369D01*
X16971421Y2811410D01*
X16971420Y2811410D01*
X16883293Y2786223D01*
X16836929Y2772972D01*
X16715680Y2696470D01*
X16620777Y2589012D01*
X16559847Y2459237D01*
X16550622Y2399985D01*
X16538327Y2321023D01*
X16538327Y2321019D01*
X16537791Y2317577D01*
X200500Y2317577D01*
X200500Y3257377D01*
X9730591Y3257377D01*
X9731043Y3253920D01*
X9731043Y3253917D01*
X9748727Y3118683D01*
X9749180Y3115221D01*
X9806920Y2983997D01*
X9899170Y2874252D01*
X10018513Y2794810D01*
X10155357Y2752058D01*
X10158847Y2751994D01*
X10178758Y2751629D01*
X10298699Y2749430D01*
X10437017Y2787140D01*
X10439988Y2788964D01*
X10439990Y2788965D01*
X10556218Y2860329D01*
X10556221Y2860331D01*
X10559191Y2862155D01*
X10568388Y2872315D01*
X10653055Y2965855D01*
X10653056Y2965856D01*
X10655400Y2968446D01*
X10662935Y2983997D01*
X10716389Y3094328D01*
X10717910Y3097467D01*
X10720360Y3112026D01*
X10741383Y3236984D01*
X10741383Y3236987D01*
X10741696Y3238846D01*
X10741847Y3251200D01*
X10721523Y3393118D01*
X10662184Y3523628D01*
X10655461Y3531431D01*
X10570880Y3629591D01*
X10568600Y3632237D01*
X10448295Y3710215D01*
X10310939Y3751293D01*
X10239881Y3751727D01*
X10171068Y3752148D01*
X10171066Y3752148D01*
X10167576Y3752169D01*
X10164221Y3751210D01*
X10164220Y3751210D01*
X10033084Y3713731D01*
X10029729Y3712772D01*
X9908480Y3636270D01*
X9813577Y3528812D01*
X9752647Y3399037D01*
X9743422Y3339785D01*
X9731127Y3260823D01*
X9731127Y3260819D01*
X9730591Y3257377D01*
X200500Y3257377D01*
X200500Y4305000D01*
X10772794Y4305000D01*
X10791500Y4186892D01*
X10845789Y4080345D01*
X10930345Y3995789D01*
X10933778Y3994040D01*
X10933779Y3994039D01*
X10983618Y3968645D01*
X11036892Y3941500D01*
X11040697Y3940897D01*
X11040698Y3940897D01*
X11151193Y3923397D01*
X11155000Y3922794D01*
X11158807Y3923397D01*
X11269302Y3940897D01*
X11269303Y3940897D01*
X11273108Y3941500D01*
X11326382Y3968645D01*
X11376221Y3994039D01*
X11376222Y3994040D01*
X11379655Y3995789D01*
X11464211Y4080345D01*
X11518500Y4186892D01*
X11537206Y4305000D01*
X11922794Y4305000D01*
X11941500Y4186892D01*
X11995789Y4080345D01*
X12080345Y3995789D01*
X12083778Y3994040D01*
X12083779Y3994039D01*
X12133618Y3968645D01*
X12186892Y3941500D01*
X12190697Y3940897D01*
X12190698Y3940897D01*
X12301193Y3923397D01*
X12305000Y3922794D01*
X12308807Y3923397D01*
X12419302Y3940897D01*
X12419303Y3940897D01*
X12423108Y3941500D01*
X12476382Y3968645D01*
X12526221Y3994039D01*
X12526222Y3994040D01*
X12529655Y3995789D01*
X12614211Y4080345D01*
X12668500Y4186892D01*
X12687206Y4305000D01*
X12681980Y4337999D01*
X12669103Y4419302D01*
X12669103Y4419303D01*
X12668500Y4423108D01*
X12614211Y4529655D01*
X12529655Y4614211D01*
X12526222Y4615960D01*
X12526221Y4615961D01*
X12476382Y4641355D01*
X12423108Y4668500D01*
X12419303Y4669103D01*
X12419302Y4669103D01*
X12308807Y4686603D01*
X12305000Y4687206D01*
X12301193Y4686603D01*
X12190698Y4669103D01*
X12190697Y4669103D01*
X12186892Y4668500D01*
X12133618Y4641355D01*
X12083779Y4615961D01*
X12083778Y4615960D01*
X12080345Y4614211D01*
X11995789Y4529655D01*
X11941500Y4423108D01*
X11940897Y4419303D01*
X11940897Y4419302D01*
X11928020Y4337999D01*
X11922794Y4305000D01*
X11537206Y4305000D01*
X11531980Y4337999D01*
X11519103Y4419302D01*
X11519103Y4419303D01*
X11518500Y4423108D01*
X11464211Y4529655D01*
X11379655Y4614211D01*
X11376222Y4615960D01*
X11376221Y4615961D01*
X11326382Y4641355D01*
X11273108Y4668500D01*
X11269303Y4669103D01*
X11269302Y4669103D01*
X11158807Y4686603D01*
X11155000Y4687206D01*
X11151193Y4686603D01*
X11040698Y4669103D01*
X11040697Y4669103D01*
X11036892Y4668500D01*
X10983618Y4641355D01*
X10933779Y4615961D01*
X10933778Y4615960D01*
X10930345Y4614211D01*
X10845789Y4529655D01*
X10791500Y4423108D01*
X10790897Y4419303D01*
X10790897Y4419302D01*
X10778020Y4337999D01*
X10772794Y4305000D01*
X200500Y4305000D01*
X200500Y5441777D01*
X6377791Y5441777D01*
X6378243Y5438320D01*
X6378243Y5438317D01*
X6395927Y5303083D01*
X6396380Y5299621D01*
X6454120Y5168397D01*
X6456366Y5165725D01*
X6533976Y5073397D01*
X6546370Y5058652D01*
X6665713Y4979210D01*
X6802557Y4936458D01*
X6806047Y4936394D01*
X6825958Y4936029D01*
X6945899Y4933830D01*
X7037285Y4958745D01*
X7074487Y4954012D01*
X7097448Y4924359D01*
X7098590Y4903932D01*
X7089527Y4845723D01*
X7089527Y4845719D01*
X7088991Y4842277D01*
X7089443Y4838820D01*
X7089443Y4838817D01*
X7107127Y4703583D01*
X7107580Y4700121D01*
X7165320Y4568897D01*
X7257570Y4459152D01*
X7376913Y4379710D01*
X7513757Y4336958D01*
X7517247Y4336894D01*
X7537158Y4336529D01*
X7657099Y4334330D01*
X7795417Y4372040D01*
X7798388Y4373864D01*
X7798390Y4373865D01*
X7914618Y4445229D01*
X7914621Y4445231D01*
X7917591Y4447055D01*
X7926788Y4457215D01*
X8011455Y4550755D01*
X8011456Y4550756D01*
X8013800Y4553346D01*
X8021335Y4568897D01*
X8068744Y4666750D01*
X8076310Y4682367D01*
X8077125Y4687206D01*
X8099783Y4821884D01*
X8099783Y4821887D01*
X8100096Y4823746D01*
X8100200Y4832230D01*
X8100224Y4834198D01*
X8100224Y4834201D01*
X8100247Y4836100D01*
X8079923Y4978018D01*
X8020584Y5108528D01*
X7966244Y5171593D01*
X7929280Y5214491D01*
X7927000Y5217137D01*
X7806695Y5295115D01*
X7669339Y5336193D01*
X7598281Y5336627D01*
X7529468Y5337048D01*
X7529466Y5337048D01*
X7525976Y5337069D01*
X7522621Y5336110D01*
X7522620Y5336110D01*
X7441411Y5312900D01*
X7404153Y5317178D01*
X7385891Y5340177D01*
X8739991Y5340177D01*
X8740443Y5336720D01*
X8740443Y5336717D01*
X8755832Y5219037D01*
X8758580Y5198021D01*
X8816320Y5066797D01*
X8818566Y5064125D01*
X8896392Y4971540D01*
X8908570Y4957052D01*
X9027913Y4877610D01*
X9164757Y4834858D01*
X9168247Y4834794D01*
X9188158Y4834429D01*
X9308099Y4832230D01*
X9446417Y4869940D01*
X9449388Y4871764D01*
X9449390Y4871765D01*
X9565618Y4943129D01*
X9565621Y4943131D01*
X9568591Y4944955D01*
X9577788Y4955115D01*
X9662455Y5048655D01*
X9662456Y5048656D01*
X9664800Y5051246D01*
X9672335Y5066797D01*
X9725789Y5177128D01*
X9727310Y5180267D01*
X9729760Y5194826D01*
X9750783Y5319784D01*
X9750783Y5319787D01*
X9751096Y5321646D01*
X9751247Y5334000D01*
X9733919Y5455000D01*
X10772794Y5455000D01*
X10774888Y5441777D01*
X10789971Y5346549D01*
X10791500Y5336892D01*
X10845789Y5230345D01*
X10930345Y5145789D01*
X10933778Y5144040D01*
X10933779Y5144039D01*
X10983619Y5118644D01*
X11036892Y5091500D01*
X11040697Y5090897D01*
X11040698Y5090897D01*
X11151193Y5073397D01*
X11155000Y5072794D01*
X11158807Y5073397D01*
X11269302Y5090897D01*
X11269303Y5090897D01*
X11273108Y5091500D01*
X11326382Y5118645D01*
X11376221Y5144039D01*
X11376222Y5144040D01*
X11379655Y5145789D01*
X11464211Y5230345D01*
X11518500Y5336892D01*
X11520030Y5346549D01*
X11535112Y5441777D01*
X11537206Y5455000D01*
X11922794Y5455000D01*
X11924888Y5441777D01*
X11939971Y5346549D01*
X11941500Y5336892D01*
X11995789Y5230345D01*
X12080345Y5145789D01*
X12083778Y5144040D01*
X12083779Y5144039D01*
X12133619Y5118644D01*
X12186892Y5091500D01*
X12190697Y5090897D01*
X12190698Y5090897D01*
X12301193Y5073397D01*
X12305000Y5072794D01*
X12308807Y5073397D01*
X12419302Y5090897D01*
X12419303Y5090897D01*
X12423108Y5091500D01*
X12476382Y5118645D01*
X12526221Y5144039D01*
X12526222Y5144040D01*
X12529655Y5145789D01*
X12614211Y5230345D01*
X12668500Y5336892D01*
X12670030Y5346549D01*
X12685112Y5441777D01*
X12687206Y5455000D01*
X12668500Y5573108D01*
X12614211Y5679655D01*
X12529655Y5764211D01*
X12526222Y5765960D01*
X12526221Y5765961D01*
X12426764Y5816637D01*
X12423108Y5818500D01*
X12419303Y5819103D01*
X12419302Y5819103D01*
X12308807Y5836603D01*
X12305000Y5837206D01*
X12301193Y5836603D01*
X12190698Y5819103D01*
X12190697Y5819103D01*
X12186892Y5818500D01*
X12183236Y5816637D01*
X12083779Y5765961D01*
X12083778Y5765960D01*
X12080345Y5764211D01*
X11995789Y5679655D01*
X11941500Y5573108D01*
X11922794Y5455000D01*
X11537206Y5455000D01*
X11518500Y5573108D01*
X11464211Y5679655D01*
X11379655Y5764211D01*
X11376222Y5765960D01*
X11376221Y5765961D01*
X11276764Y5816637D01*
X11273108Y5818500D01*
X11269303Y5819103D01*
X11269302Y5819103D01*
X11158807Y5836603D01*
X11155000Y5837206D01*
X11151193Y5836603D01*
X11040698Y5819103D01*
X11040697Y5819103D01*
X11036892Y5818500D01*
X11033236Y5816637D01*
X10933779Y5765961D01*
X10933778Y5765960D01*
X10930345Y5764211D01*
X10845789Y5679655D01*
X10791500Y5573108D01*
X10772794Y5455000D01*
X9733919Y5455000D01*
X9730923Y5475918D01*
X9671584Y5606428D01*
X9664861Y5614231D01*
X9580280Y5712391D01*
X9578000Y5715037D01*
X9457695Y5793015D01*
X9320339Y5834093D01*
X9249281Y5834527D01*
X9180468Y5834948D01*
X9180466Y5834948D01*
X9176976Y5834969D01*
X9173621Y5834010D01*
X9173620Y5834010D01*
X9042484Y5796531D01*
X9039129Y5795572D01*
X8917880Y5719070D01*
X8822977Y5611612D01*
X8821494Y5608454D01*
X8821493Y5608452D01*
X8804899Y5573108D01*
X8762047Y5481837D01*
X8757869Y5455000D01*
X8740527Y5343623D01*
X8740527Y5343619D01*
X8739991Y5340177D01*
X7385891Y5340177D01*
X7380832Y5346549D01*
X7379625Y5368144D01*
X7388583Y5421385D01*
X7388583Y5421386D01*
X7388896Y5423246D01*
X7389047Y5435600D01*
X7368723Y5577518D01*
X7309384Y5708028D01*
X7302661Y5715831D01*
X7218080Y5813991D01*
X7215800Y5816637D01*
X7095495Y5894615D01*
X6958139Y5935693D01*
X6887081Y5936127D01*
X6818268Y5936548D01*
X6818266Y5936548D01*
X6814776Y5936569D01*
X6811421Y5935610D01*
X6811420Y5935610D01*
X6680284Y5898131D01*
X6676929Y5897172D01*
X6555680Y5820670D01*
X6460777Y5713212D01*
X6459294Y5710054D01*
X6459293Y5710052D01*
X6424487Y5635917D01*
X6399847Y5583437D01*
X6390622Y5524185D01*
X6378327Y5445223D01*
X6378327Y5445219D01*
X6377791Y5441777D01*
X200500Y5441777D01*
X200500Y7456177D01*
X9644391Y7456177D01*
X9644843Y7452720D01*
X9644843Y7452717D01*
X9661120Y7328246D01*
X9662980Y7314021D01*
X9720720Y7182797D01*
X9812970Y7073052D01*
X9932313Y6993610D01*
X10069157Y6950858D01*
X10072647Y6950794D01*
X10092558Y6950429D01*
X10212499Y6948230D01*
X10350817Y6985940D01*
X10353788Y6987764D01*
X10353790Y6987765D01*
X10470018Y7059129D01*
X10470021Y7059131D01*
X10472991Y7060955D01*
X10481835Y7070725D01*
X10566855Y7164655D01*
X10566856Y7164656D01*
X10569200Y7167246D01*
X10576735Y7182797D01*
X10630189Y7293128D01*
X10631710Y7296267D01*
X10634160Y7310826D01*
X10655183Y7435784D01*
X10655183Y7435787D01*
X10655496Y7437646D01*
X10655647Y7450000D01*
X10635323Y7591918D01*
X10604328Y7660088D01*
X11038302Y7660088D01*
X11038754Y7656631D01*
X11038754Y7656628D01*
X11047216Y7591918D01*
X11056891Y7517932D01*
X11114631Y7386708D01*
X11116877Y7384036D01*
X11187764Y7299706D01*
X11206881Y7276963D01*
X11326224Y7197521D01*
X11463068Y7154769D01*
X11466558Y7154705D01*
X11486469Y7154340D01*
X11606410Y7152141D01*
X11744728Y7189851D01*
X11747699Y7191675D01*
X11747701Y7191676D01*
X11863929Y7263040D01*
X11863932Y7263042D01*
X11866902Y7264866D01*
X11876099Y7275026D01*
X11941044Y7346777D01*
X16613991Y7346777D01*
X16614443Y7343320D01*
X16614443Y7343317D01*
X16632127Y7208083D01*
X16632580Y7204621D01*
X16690320Y7073397D01*
X16692566Y7070725D01*
X16764606Y6985023D01*
X16782570Y6963652D01*
X16901913Y6884210D01*
X17038757Y6841458D01*
X17042247Y6841394D01*
X17062158Y6841029D01*
X17182099Y6838830D01*
X17320417Y6876540D01*
X17323388Y6878364D01*
X17323390Y6878365D01*
X17439618Y6949729D01*
X17439621Y6949731D01*
X17442591Y6951555D01*
X17451788Y6961715D01*
X17536455Y7055255D01*
X17536456Y7055256D01*
X17538800Y7057846D01*
X17546335Y7073397D01*
X17593326Y7170389D01*
X17601310Y7186867D01*
X17602928Y7196480D01*
X17624783Y7326384D01*
X17624783Y7326387D01*
X17625096Y7328246D01*
X17625247Y7340600D01*
X17604923Y7482518D01*
X17545584Y7613028D01*
X17538861Y7620831D01*
X17454280Y7718991D01*
X17452000Y7721637D01*
X17331695Y7799615D01*
X17194339Y7840693D01*
X17123281Y7841127D01*
X17054468Y7841548D01*
X17054466Y7841548D01*
X17050976Y7841569D01*
X17047621Y7840610D01*
X17047620Y7840610D01*
X17020773Y7832937D01*
X16913129Y7802172D01*
X16791880Y7725670D01*
X16696977Y7618212D01*
X16695494Y7615054D01*
X16695493Y7615052D01*
X16687411Y7597837D01*
X16636047Y7488437D01*
X16629766Y7448098D01*
X16614527Y7350223D01*
X16614527Y7350219D01*
X16613991Y7346777D01*
X11941044Y7346777D01*
X11960766Y7368566D01*
X11960767Y7368567D01*
X11963111Y7371157D01*
X11970646Y7386708D01*
X12018263Y7484992D01*
X12025621Y7500178D01*
X12028071Y7514737D01*
X12049094Y7639695D01*
X12049094Y7639698D01*
X12049407Y7641557D01*
X12049558Y7653911D01*
X12029234Y7795829D01*
X11969895Y7926339D01*
X11963172Y7934142D01*
X11878591Y8032302D01*
X11876311Y8034948D01*
X11756006Y8112926D01*
X11618650Y8154004D01*
X11547592Y8154438D01*
X11478779Y8154859D01*
X11478777Y8154859D01*
X11475287Y8154880D01*
X11471932Y8153921D01*
X11471931Y8153921D01*
X11340795Y8116442D01*
X11337440Y8115483D01*
X11216191Y8038981D01*
X11121288Y7931523D01*
X11119805Y7928365D01*
X11119804Y7928363D01*
X11110720Y7909015D01*
X11060358Y7801748D01*
X11051133Y7742496D01*
X11038838Y7663534D01*
X11038838Y7663530D01*
X11038302Y7660088D01*
X10604328Y7660088D01*
X10575984Y7722428D01*
X10573191Y7725670D01*
X10484680Y7828391D01*
X10482400Y7831037D01*
X10362095Y7909015D01*
X10224739Y7950093D01*
X10153681Y7950527D01*
X10084868Y7950948D01*
X10084866Y7950948D01*
X10081376Y7950969D01*
X10078021Y7950010D01*
X10078020Y7950010D01*
X9984081Y7923162D01*
X9943529Y7911572D01*
X9822280Y7835070D01*
X9727377Y7727612D01*
X9725894Y7724454D01*
X9725893Y7724452D01*
X9723451Y7719251D01*
X9666447Y7597837D01*
X9657222Y7538585D01*
X9644927Y7459623D01*
X9644927Y7459619D01*
X9644391Y7456177D01*
X200500Y7456177D01*
X200500Y10826577D01*
X6657191Y10826577D01*
X6657643Y10823120D01*
X6657643Y10823117D01*
X6675327Y10687883D01*
X6675780Y10684421D01*
X6733520Y10553197D01*
X6825770Y10443452D01*
X6945113Y10364010D01*
X7081957Y10321258D01*
X7085447Y10321194D01*
X7105358Y10320829D01*
X7225299Y10318630D01*
X7363617Y10356340D01*
X7366588Y10358164D01*
X7366590Y10358165D01*
X7482818Y10429529D01*
X7482821Y10429531D01*
X7485791Y10431355D01*
X7494988Y10441515D01*
X7579655Y10535055D01*
X7579656Y10535056D01*
X7582000Y10537646D01*
X7589535Y10553197D01*
X7642989Y10663528D01*
X7644510Y10666667D01*
X7646960Y10681226D01*
X7667983Y10806184D01*
X7667983Y10806187D01*
X7668296Y10808046D01*
X7668447Y10820400D01*
X7648123Y10962318D01*
X7588784Y11092828D01*
X7582061Y11100631D01*
X7497480Y11198791D01*
X7495200Y11201437D01*
X7374895Y11279415D01*
X7237539Y11320493D01*
X7166481Y11320927D01*
X7097668Y11321348D01*
X7097666Y11321348D01*
X7094176Y11321369D01*
X7090821Y11320410D01*
X7090820Y11320410D01*
X6959684Y11282931D01*
X6956329Y11281972D01*
X6835080Y11205470D01*
X6740177Y11098012D01*
X6679247Y10968237D01*
X6670022Y10908985D01*
X6657727Y10830023D01*
X6657727Y10830019D01*
X6657191Y10826577D01*
X200500Y10826577D01*
X200500Y12147377D01*
X16791791Y12147377D01*
X16792243Y12143920D01*
X16792243Y12143917D01*
X16809927Y12008683D01*
X16810380Y12005221D01*
X16868120Y11873997D01*
X16960370Y11764252D01*
X17079713Y11684810D01*
X17216557Y11642058D01*
X17220047Y11641994D01*
X17239958Y11641629D01*
X17359899Y11639430D01*
X17498217Y11677140D01*
X17501188Y11678964D01*
X17501190Y11678965D01*
X17617418Y11750329D01*
X17617421Y11750331D01*
X17620391Y11752155D01*
X17629588Y11762315D01*
X17714255Y11855855D01*
X17714256Y11855856D01*
X17716600Y11858446D01*
X17724135Y11873997D01*
X17777589Y11984328D01*
X17779110Y11987467D01*
X17781560Y12002026D01*
X17802583Y12126984D01*
X17802583Y12126987D01*
X17802896Y12128846D01*
X17803047Y12141200D01*
X17782723Y12283118D01*
X17723384Y12413628D01*
X17716661Y12421431D01*
X17632080Y12519591D01*
X17629800Y12522237D01*
X17509495Y12600215D01*
X17372139Y12641293D01*
X17301081Y12641727D01*
X17232268Y12642148D01*
X17232266Y12642148D01*
X17228776Y12642169D01*
X17225421Y12641210D01*
X17225420Y12641210D01*
X17116947Y12610208D01*
X17090929Y12602772D01*
X16969680Y12526270D01*
X16874777Y12418812D01*
X16873294Y12415654D01*
X16873293Y12415652D01*
X16858336Y12383795D01*
X16813847Y12289037D01*
X16804622Y12229785D01*
X16792327Y12150823D01*
X16792327Y12150819D01*
X16791791Y12147377D01*
X200500Y12147377D01*
X200500Y12741360D01*
X12355301Y12741360D01*
X12355753Y12737903D01*
X12355753Y12737900D01*
X12357482Y12724680D01*
X12372033Y12613406D01*
X12424005Y12495290D01*
X12426251Y12492618D01*
X12426253Y12492615D01*
X12504792Y12399182D01*
X12507039Y12396509D01*
X12614460Y12325004D01*
X12617786Y12323965D01*
X12617788Y12323964D01*
X12636558Y12318100D01*
X12737633Y12286522D01*
X12741123Y12286458D01*
X12767320Y12285978D01*
X12866655Y12284157D01*
X12991155Y12318100D01*
X12994126Y12319924D01*
X12994128Y12319925D01*
X13098150Y12383795D01*
X13101124Y12385621D01*
X13187722Y12481293D01*
X13243988Y12597425D01*
X13244575Y12600910D01*
X13265083Y12722816D01*
X13265397Y12724680D01*
X13265533Y12735800D01*
X13264737Y12741360D01*
X13455301Y12741360D01*
X13455753Y12737903D01*
X13455753Y12737900D01*
X13457482Y12724680D01*
X13472033Y12613406D01*
X13524005Y12495290D01*
X13526251Y12492618D01*
X13526253Y12492615D01*
X13604792Y12399182D01*
X13607039Y12396509D01*
X13714460Y12325004D01*
X13717786Y12323965D01*
X13717788Y12323964D01*
X13736558Y12318100D01*
X13837633Y12286522D01*
X13841123Y12286458D01*
X13867320Y12285978D01*
X13966655Y12284157D01*
X14091155Y12318100D01*
X14094126Y12319924D01*
X14094128Y12319925D01*
X14198150Y12383795D01*
X14201124Y12385621D01*
X14287722Y12481293D01*
X14343988Y12597425D01*
X14344575Y12600910D01*
X14365083Y12722816D01*
X14365397Y12724680D01*
X14365533Y12735800D01*
X14347239Y12863541D01*
X14293828Y12981012D01*
X14209593Y13078772D01*
X14162731Y13109146D01*
X14104237Y13147060D01*
X14104233Y13147062D01*
X14101306Y13148959D01*
X14097962Y13149959D01*
X14097960Y13149960D01*
X13981023Y13184932D01*
X13981024Y13184932D01*
X13977673Y13185934D01*
X13911473Y13186338D01*
X13852123Y13186701D01*
X13852121Y13186701D01*
X13848631Y13186722D01*
X13845276Y13185763D01*
X13845275Y13185763D01*
X13806059Y13174555D01*
X13724555Y13151261D01*
X13615419Y13082401D01*
X13529996Y12985678D01*
X13475154Y12868868D01*
X13474617Y12865421D01*
X13474617Y12865420D01*
X13474325Y12863541D01*
X13455301Y12741360D01*
X13264737Y12741360D01*
X13247239Y12863541D01*
X13193828Y12981012D01*
X13109593Y13078772D01*
X13062731Y13109146D01*
X13004237Y13147060D01*
X13004233Y13147062D01*
X13001306Y13148959D01*
X12997962Y13149959D01*
X12997960Y13149960D01*
X12881023Y13184932D01*
X12881024Y13184932D01*
X12877673Y13185934D01*
X12811473Y13186338D01*
X12752123Y13186701D01*
X12752121Y13186701D01*
X12748631Y13186722D01*
X12745276Y13185763D01*
X12745275Y13185763D01*
X12706059Y13174555D01*
X12624555Y13151261D01*
X12515419Y13082401D01*
X12429996Y12985678D01*
X12375154Y12868868D01*
X12374617Y12865421D01*
X12374617Y12865420D01*
X12374325Y12863541D01*
X12355301Y12741360D01*
X200500Y12741360D01*
X200500Y13569777D01*
X16639391Y13569777D01*
X16639843Y13566320D01*
X16639843Y13566317D01*
X16657527Y13431083D01*
X16657980Y13427621D01*
X16715720Y13296397D01*
X16807970Y13186652D01*
X16927313Y13107210D01*
X17064157Y13064458D01*
X17067647Y13064394D01*
X17087558Y13064029D01*
X17207499Y13061830D01*
X17345817Y13099540D01*
X17348788Y13101364D01*
X17348790Y13101365D01*
X17465018Y13172729D01*
X17465021Y13172731D01*
X17467991Y13174555D01*
X17477188Y13184715D01*
X17561855Y13278255D01*
X17561856Y13278256D01*
X17564200Y13280846D01*
X17571735Y13296397D01*
X17625189Y13406728D01*
X17626710Y13409867D01*
X17629160Y13424426D01*
X17650183Y13549384D01*
X17650183Y13549387D01*
X17650496Y13551246D01*
X17650647Y13563600D01*
X17630323Y13705518D01*
X17570984Y13836028D01*
X17564261Y13843831D01*
X17479680Y13941991D01*
X17477400Y13944637D01*
X17357095Y14022615D01*
X17219739Y14063693D01*
X17148681Y14064127D01*
X17079868Y14064548D01*
X17079866Y14064548D01*
X17076376Y14064569D01*
X17073021Y14063610D01*
X17073020Y14063610D01*
X16943427Y14026572D01*
X16938529Y14025172D01*
X16817280Y13948670D01*
X16722377Y13841212D01*
X16661447Y13711437D01*
X16657428Y13685621D01*
X16639927Y13573223D01*
X16639927Y13573219D01*
X16639391Y13569777D01*
X200500Y13569777D01*
X200500Y14041360D01*
X12355301Y14041360D01*
X12355753Y14037903D01*
X12355753Y14037900D01*
X12367178Y13950531D01*
X12372033Y13913406D01*
X12424005Y13795290D01*
X12426251Y13792618D01*
X12426253Y13792615D01*
X12499466Y13705518D01*
X12507039Y13696509D01*
X12614460Y13625004D01*
X12617786Y13623965D01*
X12617788Y13623964D01*
X12636558Y13618100D01*
X12737633Y13586522D01*
X12741123Y13586458D01*
X12767320Y13585978D01*
X12866655Y13584157D01*
X12991155Y13618100D01*
X12994126Y13619924D01*
X12994128Y13619925D01*
X13098150Y13683795D01*
X13101124Y13685621D01*
X13187722Y13781293D01*
X13243988Y13897425D01*
X13252251Y13946537D01*
X13264730Y14020715D01*
X13265397Y14024680D01*
X13265533Y14035800D01*
X13264737Y14041360D01*
X13455301Y14041360D01*
X13455753Y14037903D01*
X13455753Y14037900D01*
X13467178Y13950531D01*
X13472033Y13913406D01*
X13524005Y13795290D01*
X13526251Y13792618D01*
X13526253Y13792615D01*
X13599466Y13705518D01*
X13607039Y13696509D01*
X13714460Y13625004D01*
X13717786Y13623965D01*
X13717788Y13623964D01*
X13736558Y13618100D01*
X13837633Y13586522D01*
X13841123Y13586458D01*
X13867320Y13585978D01*
X13966655Y13584157D01*
X14091155Y13618100D01*
X14094126Y13619924D01*
X14094128Y13619925D01*
X14198150Y13683795D01*
X14201124Y13685621D01*
X14287722Y13781293D01*
X14343988Y13897425D01*
X14352251Y13946537D01*
X14364730Y14020715D01*
X14365397Y14024680D01*
X14365533Y14035800D01*
X14347239Y14163541D01*
X14293828Y14281012D01*
X14209593Y14378772D01*
X14171176Y14403672D01*
X14104237Y14447060D01*
X14104233Y14447062D01*
X14101306Y14448959D01*
X14097962Y14449959D01*
X14097960Y14449960D01*
X13981023Y14484932D01*
X13981024Y14484932D01*
X13977673Y14485934D01*
X13911473Y14486338D01*
X13852123Y14486701D01*
X13852121Y14486701D01*
X13848631Y14486722D01*
X13845276Y14485763D01*
X13845275Y14485763D01*
X13727910Y14452220D01*
X13724555Y14451261D01*
X13615419Y14382401D01*
X13529996Y14285678D01*
X13475154Y14168868D01*
X13474617Y14165421D01*
X13474617Y14165420D01*
X13458623Y14062693D01*
X13455301Y14041360D01*
X13264737Y14041360D01*
X13247239Y14163541D01*
X13193828Y14281012D01*
X13109593Y14378772D01*
X13071176Y14403672D01*
X13004237Y14447060D01*
X13004233Y14447062D01*
X13001306Y14448959D01*
X12997962Y14449959D01*
X12997960Y14449960D01*
X12881023Y14484932D01*
X12881024Y14484932D01*
X12877673Y14485934D01*
X12811473Y14486338D01*
X12752123Y14486701D01*
X12752121Y14486701D01*
X12748631Y14486722D01*
X12745276Y14485763D01*
X12745275Y14485763D01*
X12627910Y14452220D01*
X12624555Y14451261D01*
X12515419Y14382401D01*
X12429996Y14285678D01*
X12375154Y14168868D01*
X12374617Y14165421D01*
X12374617Y14165420D01*
X12358623Y14062693D01*
X12355301Y14041360D01*
X200500Y14041360D01*
X200500Y15220777D01*
X535791Y15220777D01*
X536243Y15217320D01*
X536243Y15217317D01*
X553927Y15082083D01*
X554380Y15078621D01*
X612120Y14947397D01*
X704370Y14837652D01*
X823713Y14758210D01*
X960557Y14715458D01*
X964047Y14715394D01*
X983958Y14715029D01*
X1103899Y14712830D01*
X1242217Y14750540D01*
X1245188Y14752364D01*
X1245190Y14752365D01*
X1361418Y14823729D01*
X1361421Y14823731D01*
X1364391Y14825555D01*
X1373588Y14835715D01*
X1458255Y14929255D01*
X1458256Y14929256D01*
X1460600Y14931846D01*
X1468135Y14947397D01*
X1521589Y15057728D01*
X1523110Y15060867D01*
X1524835Y15071115D01*
X1546583Y15200384D01*
X1546583Y15200387D01*
X1546896Y15202246D01*
X1547047Y15214600D01*
X1526723Y15356518D01*
X1481411Y15456177D01*
X20694391Y15456177D01*
X20694843Y15452720D01*
X20694843Y15452717D01*
X20696739Y15438219D01*
X20712980Y15314021D01*
X20770720Y15182797D01*
X20772966Y15180125D01*
X20858289Y15078621D01*
X20862970Y15073052D01*
X20982313Y14993610D01*
X21119157Y14950858D01*
X21122647Y14950794D01*
X21133611Y14950593D01*
X21262499Y14948230D01*
X21400817Y14985940D01*
X21403788Y14987764D01*
X21403790Y14987765D01*
X21520018Y15059129D01*
X21520021Y15059131D01*
X21522991Y15060955D01*
X21526025Y15064306D01*
X21616855Y15164655D01*
X21616856Y15164656D01*
X21619200Y15167246D01*
X21626735Y15182797D01*
X21680189Y15293128D01*
X21681710Y15296267D01*
X21684160Y15310826D01*
X21702179Y15417930D01*
X21719845Y15446145D01*
X21715852Y15447799D01*
X21701995Y15475501D01*
X21685818Y15588461D01*
X21685323Y15591918D01*
X21625984Y15722428D01*
X21619261Y15730231D01*
X21534680Y15828391D01*
X21532400Y15831037D01*
X21412095Y15909015D01*
X21274739Y15950093D01*
X21203681Y15950527D01*
X21134868Y15950948D01*
X21134866Y15950948D01*
X21131376Y15950969D01*
X21128021Y15950010D01*
X21128020Y15950010D01*
X20996884Y15912531D01*
X20993529Y15911572D01*
X20872280Y15835070D01*
X20777377Y15727612D01*
X20775894Y15724454D01*
X20775893Y15724452D01*
X20771713Y15715548D01*
X20716447Y15597837D01*
X20707222Y15538585D01*
X20694927Y15459623D01*
X20694927Y15459619D01*
X20694391Y15456177D01*
X1481411Y15456177D01*
X1467384Y15487028D01*
X1460661Y15494831D01*
X1376080Y15592991D01*
X1373800Y15595637D01*
X1253495Y15673615D01*
X1116139Y15714693D01*
X1045081Y15715127D01*
X976268Y15715548D01*
X976266Y15715548D01*
X972776Y15715569D01*
X969421Y15714610D01*
X969420Y15714610D01*
X838284Y15677131D01*
X834929Y15676172D01*
X713680Y15599670D01*
X618777Y15492212D01*
X617294Y15489054D01*
X617293Y15489052D01*
X593427Y15438219D01*
X557847Y15362437D01*
X550848Y15317483D01*
X536327Y15224223D01*
X536327Y15224219D01*
X535791Y15220777D01*
X200500Y15220777D01*
X200500Y16160142D01*
X202935Y16175398D01*
X204779Y16181023D01*
X203029Y16194213D01*
X203030Y16207102D01*
X227204Y16389177D01*
X535791Y16389177D01*
X536243Y16385720D01*
X536243Y16385717D01*
X553927Y16250483D01*
X554380Y16247021D01*
X612120Y16115797D01*
X614366Y16113125D01*
X648311Y16072743D01*
X704370Y16006052D01*
X823713Y15926610D01*
X960557Y15883858D01*
X964047Y15883794D01*
X983958Y15883429D01*
X1103899Y15881230D01*
X1242217Y15918940D01*
X1245188Y15920764D01*
X1245190Y15920765D01*
X1361418Y15992129D01*
X1361421Y15992131D01*
X1364391Y15993955D01*
X1367116Y15996965D01*
X1458255Y16097655D01*
X1458256Y16097656D01*
X1460600Y16100246D01*
X1468135Y16115797D01*
X1497196Y16175780D01*
X1523110Y16229267D01*
X1525560Y16243826D01*
X1546583Y16368784D01*
X1546583Y16368787D01*
X1546896Y16370646D01*
X1547047Y16383000D01*
X1526723Y16524918D01*
X1467384Y16655428D01*
X1460661Y16663231D01*
X1376080Y16761391D01*
X1373800Y16764037D01*
X1308786Y16806177D01*
X6794391Y16806177D01*
X6794843Y16802720D01*
X6794843Y16802717D01*
X6812527Y16667483D01*
X6812980Y16664021D01*
X6870720Y16532797D01*
X6872966Y16530125D01*
X6941380Y16448737D01*
X6962970Y16423052D01*
X7082313Y16343610D01*
X7219157Y16300858D01*
X7222647Y16300794D01*
X7242558Y16300429D01*
X7362499Y16298230D01*
X7500817Y16335940D01*
X7503788Y16337764D01*
X7503790Y16337765D01*
X7620018Y16409129D01*
X7620021Y16409131D01*
X7622991Y16410955D01*
X7632188Y16421115D01*
X7672251Y16465377D01*
X15089991Y16465377D01*
X15090443Y16461920D01*
X15090443Y16461917D01*
X15108127Y16326683D01*
X15108580Y16323221D01*
X15166320Y16191997D01*
X15168566Y16189325D01*
X15243445Y16100246D01*
X15258570Y16082252D01*
X15377913Y16002810D01*
X15514757Y15960058D01*
X15518247Y15959994D01*
X15538158Y15959629D01*
X15658099Y15957430D01*
X15796417Y15995140D01*
X15799388Y15996964D01*
X15799390Y15996965D01*
X15915618Y16068329D01*
X15915621Y16068331D01*
X15918591Y16070155D01*
X15927788Y16080315D01*
X16012455Y16173855D01*
X16012456Y16173856D01*
X16014800Y16176446D01*
X16022335Y16191997D01*
X16075789Y16302328D01*
X16077310Y16305467D01*
X16079760Y16320026D01*
X16100783Y16444984D01*
X16100783Y16444987D01*
X16101096Y16446846D01*
X16101247Y16459200D01*
X16080923Y16601118D01*
X16021584Y16731628D01*
X16015759Y16738389D01*
X15930280Y16837591D01*
X15928000Y16840237D01*
X15807695Y16918215D01*
X15670339Y16959293D01*
X15599281Y16959727D01*
X15530468Y16960148D01*
X15530466Y16960148D01*
X15526976Y16960169D01*
X15523621Y16959210D01*
X15523620Y16959210D01*
X15463117Y16941918D01*
X15389129Y16920772D01*
X15267880Y16844270D01*
X15172977Y16736812D01*
X15112047Y16607037D01*
X15105276Y16563546D01*
X15090527Y16468823D01*
X15090527Y16468819D01*
X15089991Y16465377D01*
X7672251Y16465377D01*
X7716855Y16514655D01*
X7716856Y16514656D01*
X7719200Y16517246D01*
X7726735Y16532797D01*
X7767966Y16617899D01*
X7781710Y16646267D01*
X7783252Y16655428D01*
X7805183Y16785784D01*
X7805183Y16785787D01*
X7805496Y16787646D01*
X7805647Y16800000D01*
X7785323Y16941918D01*
X7725984Y17072428D01*
X7719261Y17080231D01*
X7634680Y17178391D01*
X7632400Y17181037D01*
X7512095Y17259015D01*
X7374739Y17300093D01*
X7303681Y17300527D01*
X7234868Y17300948D01*
X7234866Y17300948D01*
X7231376Y17300969D01*
X7228021Y17300010D01*
X7228020Y17300010D01*
X7096884Y17262531D01*
X7093529Y17261572D01*
X6972280Y17185070D01*
X6877377Y17077612D01*
X6875894Y17074454D01*
X6875893Y17074452D01*
X6850272Y17019882D01*
X6816447Y16947837D01*
X6812233Y16920772D01*
X6794927Y16809623D01*
X6794927Y16809619D01*
X6794391Y16806177D01*
X1308786Y16806177D01*
X1253495Y16842015D01*
X1116139Y16883093D01*
X1045081Y16883527D01*
X976268Y16883948D01*
X976266Y16883948D01*
X972776Y16883969D01*
X969421Y16883010D01*
X969420Y16883010D01*
X838284Y16845531D01*
X834929Y16844572D01*
X713680Y16768070D01*
X618777Y16660612D01*
X617294Y16657454D01*
X617293Y16657452D01*
X599656Y16619886D01*
X557847Y16530837D01*
X556144Y16519899D01*
X536327Y16392623D01*
X536327Y16392619D01*
X535791Y16389177D01*
X227204Y16389177D01*
X249959Y16560569D01*
X257306Y16615902D01*
X258004Y16619886D01*
X259982Y16628955D01*
X350843Y17045694D01*
X351868Y17049612D01*
X360448Y17077612D01*
X479562Y17466329D01*
X480905Y17470141D01*
X483929Y17477710D01*
X495300Y17506177D01*
X11094391Y17506177D01*
X11094843Y17502720D01*
X11094843Y17502717D01*
X11108747Y17396391D01*
X11112980Y17364021D01*
X11170720Y17232797D01*
X11172966Y17230125D01*
X11229310Y17163096D01*
X11262970Y17123052D01*
X11382313Y17043610D01*
X11519157Y17000858D01*
X11522647Y17000794D01*
X11542558Y17000429D01*
X11662499Y16998230D01*
X11757671Y17024177D01*
X20246191Y17024177D01*
X20246643Y17020720D01*
X20246643Y17020717D01*
X20264327Y16885483D01*
X20264780Y16882021D01*
X20322520Y16750797D01*
X20324766Y16748125D01*
X20407496Y16649706D01*
X20414770Y16641052D01*
X20534113Y16561610D01*
X20670957Y16518858D01*
X20674447Y16518794D01*
X20694358Y16518429D01*
X20814299Y16516230D01*
X20952617Y16553940D01*
X20955588Y16555764D01*
X20955590Y16555765D01*
X21071818Y16627129D01*
X21071821Y16627131D01*
X21074791Y16628955D01*
X21083988Y16639115D01*
X21168655Y16732655D01*
X21168656Y16732656D01*
X21171000Y16735246D01*
X21178535Y16750797D01*
X21221808Y16840115D01*
X21233510Y16864267D01*
X21235960Y16878826D01*
X21256983Y17003784D01*
X21256983Y17003787D01*
X21257296Y17005646D01*
X21257447Y17018000D01*
X21237123Y17159918D01*
X21177784Y17290428D01*
X21171061Y17298231D01*
X21086480Y17396391D01*
X21084200Y17399037D01*
X20963895Y17477015D01*
X20826539Y17518093D01*
X20755481Y17518527D01*
X20686668Y17518948D01*
X20686666Y17518948D01*
X20683176Y17518969D01*
X20679821Y17518010D01*
X20679820Y17518010D01*
X20573579Y17487646D01*
X20545329Y17479572D01*
X20424080Y17403070D01*
X20329177Y17295612D01*
X20327694Y17292454D01*
X20327693Y17292452D01*
X20293859Y17220389D01*
X20268247Y17165837D01*
X20262002Y17125727D01*
X20246727Y17027623D01*
X20246727Y17027619D01*
X20246191Y17024177D01*
X11757671Y17024177D01*
X11800817Y17035940D01*
X11803788Y17037764D01*
X11803790Y17037765D01*
X11920018Y17109129D01*
X11920021Y17109131D01*
X11922991Y17110955D01*
X11932188Y17121115D01*
X12016855Y17214655D01*
X12016856Y17214656D01*
X12019200Y17217246D01*
X12026735Y17232797D01*
X12080189Y17343128D01*
X12081710Y17346267D01*
X12084160Y17360826D01*
X12105183Y17485784D01*
X12105183Y17485787D01*
X12105496Y17487646D01*
X12105647Y17500000D01*
X12085323Y17641918D01*
X12025984Y17772428D01*
X12019261Y17780231D01*
X11934680Y17878391D01*
X11932400Y17881037D01*
X11893614Y17906177D01*
X16094391Y17906177D01*
X16094843Y17902720D01*
X16094843Y17902717D01*
X16112296Y17769251D01*
X16112980Y17764021D01*
X16170720Y17632797D01*
X16262970Y17523052D01*
X16382313Y17443610D01*
X16519157Y17400858D01*
X16522647Y17400794D01*
X16541193Y17400454D01*
X16662499Y17398230D01*
X16800817Y17435940D01*
X16803788Y17437764D01*
X16803790Y17437765D01*
X16920018Y17509129D01*
X16920021Y17509131D01*
X16922991Y17510955D01*
X16932188Y17521115D01*
X17016855Y17614655D01*
X17016856Y17614656D01*
X17019200Y17617246D01*
X17026735Y17632797D01*
X17080189Y17743128D01*
X17081710Y17746267D01*
X17084160Y17760826D01*
X17105183Y17885784D01*
X17105183Y17885787D01*
X17105496Y17887646D01*
X17105647Y17900000D01*
X17085323Y18041918D01*
X17025984Y18172428D01*
X17019261Y18180231D01*
X16934680Y18278391D01*
X16932400Y18281037D01*
X16812095Y18359015D01*
X16674739Y18400093D01*
X16603681Y18400527D01*
X16534868Y18400948D01*
X16534866Y18400948D01*
X16531376Y18400969D01*
X16528021Y18400010D01*
X16528020Y18400010D01*
X16396884Y18362531D01*
X16393529Y18361572D01*
X16272280Y18285070D01*
X16177377Y18177612D01*
X16116447Y18047837D01*
X16108858Y17999093D01*
X16094927Y17909623D01*
X16094927Y17909619D01*
X16094391Y17906177D01*
X11893614Y17906177D01*
X11812095Y17959015D01*
X11674739Y18000093D01*
X11603681Y18000527D01*
X11534868Y18000948D01*
X11534866Y18000948D01*
X11531376Y18000969D01*
X11528021Y18000010D01*
X11528020Y18000010D01*
X11396884Y17962531D01*
X11393529Y17961572D01*
X11272280Y17885070D01*
X11177377Y17777612D01*
X11175894Y17774454D01*
X11175893Y17774452D01*
X11141087Y17700317D01*
X11116447Y17647837D01*
X11111684Y17617246D01*
X11094927Y17509623D01*
X11094927Y17509619D01*
X11094391Y17506177D01*
X495300Y17506177D01*
X642565Y17874864D01*
X644221Y17878559D01*
X838758Y18268567D01*
X840707Y18272101D01*
X1008608Y18548826D01*
X1066790Y18644717D01*
X1069032Y18648089D01*
X1325102Y19000748D01*
X1327615Y19003924D01*
X1431589Y19124716D01*
X1437678Y19131790D01*
X8724049Y19131790D01*
X8724738Y19128921D01*
X8724738Y19128919D01*
X8725747Y19124716D01*
X8762216Y18972810D01*
X8837204Y18827524D01*
X8839141Y18825304D01*
X8839142Y18825302D01*
X8903412Y18751629D01*
X8944683Y18704319D01*
X8947098Y18702621D01*
X8947100Y18702620D01*
X9011565Y18657313D01*
X9078448Y18610307D01*
X9081196Y18609236D01*
X9081199Y18609234D01*
X9228026Y18551989D01*
X9230776Y18550917D01*
X9355473Y18534500D01*
X9440996Y18534500D01*
X9562313Y18549181D01*
X9569744Y18551989D01*
X9712490Y18605928D01*
X9712491Y18605929D01*
X9715255Y18606973D01*
X9849997Y18699579D01*
X9851962Y18701784D01*
X9851965Y18701787D01*
X9956792Y18819443D01*
X9956793Y18819444D01*
X9958760Y18821652D01*
X10035265Y18966145D01*
X10036280Y18970183D01*
X10074375Y19121851D01*
X10075095Y19124716D01*
X10075132Y19131790D01*
X11724049Y19131790D01*
X11724738Y19128921D01*
X11724738Y19128919D01*
X11725747Y19124716D01*
X11762216Y18972810D01*
X11837204Y18827524D01*
X11839141Y18825304D01*
X11839142Y18825302D01*
X11903412Y18751629D01*
X11944683Y18704319D01*
X11947098Y18702621D01*
X11947100Y18702620D01*
X12011565Y18657313D01*
X12078448Y18610307D01*
X12081196Y18609236D01*
X12081199Y18609234D01*
X12228026Y18551989D01*
X12230776Y18550917D01*
X12355473Y18534500D01*
X12440996Y18534500D01*
X12562313Y18549181D01*
X12569744Y18551989D01*
X12712490Y18605928D01*
X12712491Y18605929D01*
X12715255Y18606973D01*
X12849997Y18699579D01*
X12851962Y18701784D01*
X12851965Y18701787D01*
X12956792Y18819443D01*
X12956793Y18819444D01*
X12958760Y18821652D01*
X13035265Y18966145D01*
X13036280Y18970183D01*
X13074375Y19121851D01*
X13075095Y19124716D01*
X13075951Y19288210D01*
X13074963Y19292328D01*
X13038474Y19444316D01*
X13037784Y19447190D01*
X12962796Y19592476D01*
X12959952Y19595737D01*
X12857258Y19713456D01*
X12855317Y19715681D01*
X12851715Y19718213D01*
X12723969Y19807994D01*
X12721552Y19809693D01*
X12718804Y19810764D01*
X12718801Y19810766D01*
X12571974Y19868011D01*
X12571973Y19868011D01*
X12569224Y19869083D01*
X12444527Y19885500D01*
X12359004Y19885500D01*
X12237687Y19870819D01*
X12234924Y19869775D01*
X12087510Y19814072D01*
X12087509Y19814071D01*
X12084745Y19813027D01*
X11950003Y19720421D01*
X11948038Y19718216D01*
X11948035Y19718213D01*
X11880929Y19642894D01*
X11841240Y19598348D01*
X11764735Y19453855D01*
X11764017Y19450997D01*
X11764016Y19450994D01*
X11763061Y19447190D01*
X11724905Y19295284D01*
X11724049Y19131790D01*
X10075132Y19131790D01*
X10075951Y19288210D01*
X10074963Y19292328D01*
X10038474Y19444316D01*
X10037784Y19447190D01*
X9962796Y19592476D01*
X9959952Y19595737D01*
X9857258Y19713456D01*
X9855317Y19715681D01*
X9851715Y19718213D01*
X9723969Y19807994D01*
X9721552Y19809693D01*
X9718804Y19810764D01*
X9718801Y19810766D01*
X9571974Y19868011D01*
X9571973Y19868011D01*
X9569224Y19869083D01*
X9444527Y19885500D01*
X9359004Y19885500D01*
X9237687Y19870819D01*
X9234924Y19869775D01*
X9087510Y19814072D01*
X9087509Y19814071D01*
X9084745Y19813027D01*
X8950003Y19720421D01*
X8948038Y19718216D01*
X8948035Y19718213D01*
X8880929Y19642894D01*
X8841240Y19598348D01*
X8764735Y19453855D01*
X8764017Y19450997D01*
X8764016Y19450994D01*
X8763061Y19447190D01*
X8724905Y19295284D01*
X8724049Y19131790D01*
X1437678Y19131790D01*
X1572318Y19288210D01*
X1611935Y19334235D01*
X1614702Y19337193D01*
X1925325Y19642894D01*
X1928326Y19645613D01*
X2263140Y19924624D01*
X2266356Y19927086D01*
X2623061Y20177491D01*
X2626469Y20179679D01*
X2958900Y20374185D01*
X3002642Y20399778D01*
X3006206Y20401670D01*
X3399270Y20589954D01*
X3402989Y20591550D01*
X3810259Y20746730D01*
X3814100Y20748014D01*
X3971945Y20793638D01*
X4232787Y20869031D01*
X4236706Y20869990D01*
X4452698Y20913481D01*
X4663961Y20956020D01*
X4667960Y20956655D01*
X4765809Y20968059D01*
X5100871Y21007110D01*
X5104889Y21007410D01*
X5540495Y21021943D01*
X5544530Y21021910D01*
X5955966Y21001601D01*
X5968806Y20999225D01*
X5981023Y20995221D01*
X6010077Y20999075D01*
X6016520Y20999500D01*
X15983044Y20999500D01*
X15989657Y20999052D01*
X16012797Y20995900D01*
X16012799Y20995900D01*
X16018262Y20995156D01*
X16030923Y20999257D01*
X16043600Y21001580D01*
X16455470Y21021910D01*
X16459505Y21021943D01*
X16895111Y21007410D01*
G37*
%TD.AperFunction*%
%TD*%
M02*
