M48
INCH
T1C0.0079
T2C0.0118
%
G90
G05
T1
X0.4392Y0.2148
X0.4392Y0.1695
X0.4844Y0.2148
X0.4844Y0.1695
X0.5043Y0.5526
X0.5043Y0.5014
X0.5477Y0.5526
X0.5477Y0.5014
T2
X0.041Y0.645
X0.041Y0.599
X0.0512Y0.0394
X0.122Y0.0394
X0.194Y0.737
X0.194Y0.7
X0.1969Y0.0394
X0.228Y0.737
X0.228Y0.7
X0.271Y0.214
X0.271Y0.037
X0.282Y0.426
X0.2874Y0.6614
X0.299Y0.1904
X0.3208Y0.0445
X0.364Y0.21
X0.3996Y0.2933
X0.403Y0.128
X0.412Y0.595
X0.444Y0.596
X0.446Y0.421
X0.4465Y0.3823
X0.4465Y0.3445
X0.4545Y0.3013
X0.4567Y0.689
X0.5826Y0.1936
X0.6126Y0.1936
X0.614Y0.648
X0.6535Y0.7047
X0.671Y0.091
X0.674Y0.289
X0.675Y0.534
X0.681Y0.478
X0.817Y0.67
X0.8346Y0.6083
T0
M30
