G04 %TF.GenerationSoftware,KiCad,Pcbnew,(6.0.9-0)@% jlc*
G04 %TF.CreationDate,2023-01-04T12:54:03-08:00@% jlc*
G04 %TF.ProjectId,TMC2300-BOB v1.0,544d4332-3330-4302-9d42-4f422076312e,rev?@% jlc*
G04 %TF.SameCoordinates,Original@% jlc*
G04 %TF.FileFunction,Copper,L4,Bot@% jlc*
G04 %TF.FilePolarity,Positive@% jlc*
%FSLAX46Y46*%
G04 Gerber Fmt 4.6, Leading zero omitted, Abs format (unit mm)*
G04 Created by KiCad (PCBNEW (6.0.9-0)) date 2023-01-04 12:54:03*
%MOMM*%
%LPD*%
G01*
G04 APERTURE LIST*
G04 %TA.AperFunction,ComponentPad@% jlc*
%ADD10C,0.500000*%
G04 %TD@% jlc*
G04 %TA.AperFunction,SMDPad,CuDef@% jlc*
%ADD11R,1.650000X1.650000*%
G04 %TD@% jlc*
G04 %TA.AperFunction,SMDPad,CuDef@% jlc*
%ADD12R,1.600000X1.800000*%
G04 %TD@% jlc*
G04 %TA.AperFunction,SMDPad,CuDef@% jlc*
%ADD13O,2.748280X1.998980*%
G04 %TD@% jlc*
G04 %TA.AperFunction,ViaPad@% jlc*
%ADD14C,0.600000*%
G04 %TD@% jlc*
G04 %TA.AperFunction,Conductor@% jlc*
%ADD15C,0.200000*%
G04 %TD@% jlc*
G04 APERTURE END LIST*
D10*
G04 %TO.P,IC1,21,PAD@% jlc*
G04 %TO.N,GND@% jlc*
X11155000Y4305000D03*
D11*
X11730000Y4880000D03*
D10*
X12305000Y4305000D03*
X11155000Y5455000D03*
X12305000Y5455000D03*
G04 %TD@% jlc*
G04 %TO.P,U2,9,GNDPAD@% jlc*
G04 %TO.N,GND@% jlc*
X12810400Y12735800D03*
X13910400Y12735800D03*
X13910400Y14035800D03*
D12*
X13360400Y13385800D03*
D10*
X12810400Y14035800D03*
G04 %TD@% jlc*
D13*
G04 %TO.P,U1,1,PA02_A0_D0@% jlc*
G04 %TO.N,/SW1@% jlc*
X18999200Y18262600D03*
G04 %TO.P,U1,2,PA4_A1_D1@% jlc*
G04 %TO.N,/SW2@% jlc*
X18999200Y15722600D03*
G04 %TO.P,U1,3,PA10_A2_D2@% jlc*
G04 %TO.N,/LSR@% jlc*
X18999200Y13182600D03*
G04 %TO.P,U1,4,PA11_A3_D3@% jlc*
G04 %TO.N,/DIM@% jlc*
X18999200Y10642600D03*
G04 %TO.P,U1,5,PA8_A4_D4_SDA@% jlc*
G04 %TO.N,unconnected-(U1-Pad5)@% jlc*
X18999200Y8102600D03*
G04 %TO.P,U1,6,PA9_A5_D5_SCL@% jlc*
G04 %TO.N,unconnected-(U1-Pad6)@% jlc*
X18999200Y5562600D03*
G04 %TO.P,U1,7,PB08_A6_D6_TX@% jlc*
G04 %TO.N,/UART_TX@% jlc*
X18999200Y3022600D03*
G04 %TO.P,U1,8,PB09_A7_D7_RX@% jlc*
G04 %TO.N,/UART_RX@% jlc*
X2834640Y3022600D03*
G04 %TO.P,U1,9,PA7_A8_D8_SCK@% jlc*
G04 %TO.N,/EN@% jlc*
X2834640Y5562600D03*
G04 %TO.P,U1,10,PA5_A9_D9_MISO@% jlc*
G04 %TO.N,/STEP@% jlc*
X2834640Y8102600D03*
G04 %TO.P,U1,11,PA6_A10_D10_MOSI@% jlc*
G04 %TO.N,/DIR@% jlc*
X2834640Y10642600D03*
G04 %TO.P,U1,12,3V3@% jlc*
G04 %TO.N,/VIO\u005C~{STDBY}@% jlc*
X2834640Y13182600D03*
G04 %TO.P,U1,13,GND@% jlc*
G04 %TO.N,GND@% jlc*
X2834640Y15722600D03*
G04 %TO.P,U1,14,5V@% jlc*
G04 %TO.N,/+Vbat@% jlc*
X2834640Y18262600D03*
G04 %TD@% jlc*
D14*
G04 %TO.N,GND@% jlc*
X21200000Y15450000D03*
X11600000Y17500000D03*
X17119600Y7340600D03*
X6883400Y939800D03*
X17043400Y2311400D03*
X1041400Y15214600D03*
X7300000Y16800000D03*
X1041400Y16383000D03*
X16600000Y17900000D03*
G04 %TO.N,/+Vbat@% jlc*
X4927600Y18719800D03*
X5791200Y18719800D03*
X11340000Y8750000D03*
X10464800Y15113000D03*
X11340000Y9710000D03*
X3100000Y1000000D03*
X5000000Y1000000D03*
X15559800Y4917800D03*
X11328400Y10693400D03*
X11277600Y15138400D03*
X14797800Y4917800D03*
X4927600Y17780000D03*
X5791200Y17780000D03*
X1300000Y1000000D03*
G04 %TO.N,/VIO\u005C~{STDBY}@% jlc*
X6883400Y5435600D03*
X10236200Y3251200D03*
X7162800Y10820400D03*
G04 %TO.N,/EN@% jlc*
X9245600Y5334000D03*
G04 %TO.N,/UART_RX@% jlc*
X7594600Y4836100D03*
G04 %TO.N,/DIR@% jlc*
X11543911Y7653911D03*
G04 %TO.N,/STEP@% jlc*
X10150000Y7450000D03*
G04 %TO.N,/UART_TX@% jlc*
X8147178Y1130142D03*
G04 %TO.N,/SW2@% jlc*
X15595600Y16459200D03*
G04 %TO.N,/SW1@% jlc*
X20751800Y17018000D03*
G04 %TO.N,/DIM@% jlc*
X17297400Y12141200D03*
G04 %TO.N,/LSR@% jlc*
X17145000Y13563600D03*
G04 %TD@% jlc*
D15*
G04 %TO.N,/UART_RX@% jlc*
X7594600Y4836100D02*
X7558500Y4800000D01*
X7558500Y4800000D02*
X4546000Y4800000D01*
X4546000Y4800000D02*
X2895600Y3149600D01*
G04 %TO.N,/VIO\u005C~{STDBY}@% jlc*
X6934200Y10820400D02*
X4572000Y13182600D01*
X4572000Y13182600D02*
X2834640Y13182600D01*
X6883400Y5435600D02*
X8051800Y5435600D01*
X7162800Y10820400D02*
X6934200Y10820400D01*
X8051800Y5435600D02*
X10236200Y3251200D01*
G04 %TO.N,/EN@% jlc*
X6299200Y6096000D02*
X5765800Y5562600D01*
X8483600Y6096000D02*
X6299200Y6096000D01*
X5765800Y5562600D02*
X2834640Y5562600D01*
X9245600Y5334000D02*
X8483600Y6096000D01*
G04 %TO.N,/DIR@% jlc*
X2882400Y10642600D02*
X2834640Y10642600D01*
X5375000Y8150000D02*
X2882400Y10642600D01*
X11543911Y7653911D02*
X11021089Y7653911D01*
X11021089Y7653911D02*
X10525000Y8150000D01*
X10525000Y8150000D02*
X5375000Y8150000D01*
G04 %TO.N,/STEP@% jlc*
X3512240Y7425000D02*
X2834640Y8102600D01*
X10125000Y7425000D02*
X3512240Y7425000D01*
X10150000Y7450000D02*
X10125000Y7425000D01*
G04 %TO.N,/UART_TX@% jlc*
X16560800Y584200D02*
X18999200Y3022600D01*
X8774320Y1102095D02*
X9292215Y584200D01*
X9292215Y584200D02*
X16560800Y584200D01*
X8175225Y1102095D02*
X8774320Y1102095D01*
X8147178Y1130142D02*
X8175225Y1102095D01*
G04 %TO.N,/SW2@% jlc*
X15595600Y16459200D02*
X16332200Y15722600D01*
X16332200Y15722600D02*
X18999200Y15722600D01*
G04 %TO.N,/SW1@% jlc*
X19507200Y18262600D02*
X20751800Y17018000D01*
G04 %TO.N,/DIM@% jlc*
X17297400Y12141200D02*
X17500600Y12141200D01*
X17500600Y12141200D02*
X18999200Y10642600D01*
G04 %TO.N,/LSR@% jlc*
X17145000Y13563600D02*
X17526000Y13182600D01*
X17526000Y13182600D02*
X18999200Y13182600D01*
G04 %TD@% jlc*
G04 %TA.AperFunction,Conductor@% jlc*
G04 %TO.N,GND@% jlc*
G36*
X20606604Y18924752D02*
G01*
X20662750Y18847428D01*
X20847691Y18592727D01*
X20849933Y18589355D01*
X20913526Y18484546D01*
X21071729Y18223805D01*
X21073678Y18220271D01*
X21264526Y17837659D01*
X21266182Y17833964D01*
X21424774Y17436917D01*
X21426120Y17433097D01*
X21551391Y17024290D01*
X21552416Y17020372D01*
X21639943Y16618928D01*
X21643494Y16602639D01*
X21644192Y16598655D01*
X21664890Y16442767D01*
X21697230Y16199187D01*
X21697484Y16188632D01*
X21696117Y16172374D01*
X21697241Y16168236D01*
X21697241Y16168235D01*
X21697787Y16166225D01*
X21699500Y16153382D01*
X21699500Y1030582D01*
X21698756Y1022073D01*
X21694864Y1000000D01*
X21695608Y995780D01*
X21696671Y989750D01*
X21697179Y976440D01*
X21693641Y940512D01*
X21686532Y868336D01*
X21684658Y858915D01*
X21647655Y736932D01*
X21643979Y728058D01*
X21583888Y615636D01*
X21578551Y607649D01*
X21497682Y509110D01*
X21490890Y502318D01*
X21392351Y421449D01*
X21384364Y416112D01*
X21271942Y356021D01*
X21263068Y352345D01*
X21141085Y315342D01*
X21131665Y313468D01*
X21023560Y302821D01*
X21010250Y303329D01*
X21004220Y304392D01*
X21000000Y305136D01*
X20995781Y304392D01*
X20995780Y304392D01*
X20977927Y301244D01*
X20969418Y300500D01*
X16961789Y300500D01*
X16927141Y314852D01*
X16912789Y349500D01*
X16927141Y384148D01*
X18285285Y1742293D01*
X18319933Y1756645D01*
X18332615Y1754975D01*
X18395875Y1738024D01*
X18395877Y1738024D01*
X18397947Y1737469D01*
X18400074Y1737283D01*
X18400079Y1737282D01*
X18566722Y1722703D01*
X18566728Y1722703D01*
X18567788Y1722610D01*
X19430612Y1722610D01*
X19431672Y1722703D01*
X19431678Y1722703D01*
X19598321Y1737282D01*
X19598326Y1737283D01*
X19600453Y1737469D01*
X19602523Y1738024D01*
X19602525Y1738024D01*
X19818104Y1795788D01*
X19818106Y1795789D01*
X19820171Y1796342D01*
X20026328Y1892475D01*
X20212660Y2022946D01*
X20373504Y2183790D01*
X20384175Y2199029D01*
X20502749Y2368371D01*
X20502749Y2368372D01*
X20503975Y2370122D01*
X20600108Y2576279D01*
X20600662Y2578346D01*
X20658426Y2793925D01*
X20658426Y2793927D01*
X20658981Y2795997D01*
X20661166Y2820962D01*
X20678620Y3020474D01*
X20678806Y3022600D01*
X20658981Y3249203D01*
X20653849Y3268358D01*
X20600662Y3466854D01*
X20600661Y3466856D01*
X20600108Y3468921D01*
X20503975Y3675078D01*
X20432633Y3776965D01*
X20374736Y3859651D01*
X20374734Y3859653D01*
X20373504Y3861410D01*
X20212660Y4022254D01*
X20026328Y4152725D01*
X19821601Y4248191D01*
X19796264Y4275841D01*
X19797900Y4313308D01*
X19821601Y4337009D01*
X20024392Y4431572D01*
X20024394Y4431573D01*
X20026328Y4432475D01*
X20055979Y4453237D01*
X20210901Y4561714D01*
X20210903Y4561716D01*
X20212660Y4562946D01*
X20373504Y4723790D01*
X20383435Y4737972D01*
X20502749Y4908371D01*
X20502749Y4908372D01*
X20503975Y4910122D01*
X20507556Y4917800D01*
X20599204Y5114341D01*
X20600108Y5116279D01*
X20616442Y5177238D01*
X20658426Y5333925D01*
X20658426Y5333927D01*
X20658981Y5335997D01*
X20659641Y5343533D01*
X20678620Y5560474D01*
X20678806Y5562600D01*
X20672088Y5639390D01*
X20659168Y5787071D01*
X20659167Y5787076D01*
X20658981Y5789203D01*
X20640928Y5856580D01*
X20600662Y6006854D01*
X20600661Y6006856D01*
X20600108Y6008921D01*
X20503975Y6215078D01*
X20373504Y6401410D01*
X20212660Y6562254D01*
X20026328Y6692725D01*
X19821601Y6788191D01*
X19796264Y6815841D01*
X19797900Y6853308D01*
X19821601Y6877009D01*
X20024392Y6971572D01*
X20024394Y6971573D01*
X20026328Y6972475D01*
X20093861Y7019762D01*
X20210901Y7101714D01*
X20210903Y7101716D01*
X20212660Y7102946D01*
X20373504Y7263790D01*
X20376216Y7267662D01*
X20502749Y7448371D01*
X20502749Y7448372D01*
X20503975Y7450122D01*
X20600108Y7656279D01*
X20642272Y7813639D01*
X20658426Y7873925D01*
X20658426Y7873927D01*
X20658981Y7875997D01*
X20661882Y7909148D01*
X20678620Y8100474D01*
X20678806Y8102600D01*
X20673351Y8164956D01*
X20659168Y8327071D01*
X20659167Y8327076D01*
X20658981Y8329203D01*
X20642136Y8392072D01*
X20600662Y8546854D01*
X20600661Y8546856D01*
X20600108Y8548921D01*
X20503975Y8755078D01*
X20373504Y8941410D01*
X20212660Y9102254D01*
X20101295Y9180233D01*
X20028079Y9231499D01*
X20028078Y9231499D01*
X20026328Y9232725D01*
X19948805Y9268875D01*
X19821601Y9328191D01*
X19796264Y9355841D01*
X19797900Y9393308D01*
X19821601Y9417009D01*
X20024392Y9511572D01*
X20024394Y9511573D01*
X20026328Y9512475D01*
X20212660Y9642946D01*
X20373504Y9803790D01*
X20385542Y9820981D01*
X20502749Y9988371D01*
X20502749Y9988372D01*
X20503975Y9990122D01*
X20600108Y10196279D01*
X20610746Y10235979D01*
X20658426Y10413925D01*
X20658426Y10413927D01*
X20658981Y10415997D01*
X20667644Y10515010D01*
X20678620Y10640474D01*
X20678806Y10642600D01*
X20674083Y10696583D01*
X20659168Y10867071D01*
X20659167Y10867076D01*
X20658981Y10869203D01*
X20624942Y10996241D01*
X20600662Y11086854D01*
X20600661Y11086856D01*
X20600108Y11088921D01*
X20503975Y11295078D01*
X20445254Y11378940D01*
X20374736Y11479651D01*
X20374734Y11479653D01*
X20373504Y11481410D01*
X20212660Y11642254D01*
X20111742Y11712918D01*
X20028079Y11771499D01*
X20028078Y11771499D01*
X20026328Y11772725D01*
X19821601Y11868191D01*
X19796264Y11895841D01*
X19797900Y11933308D01*
X19821601Y11957009D01*
X19887247Y11987620D01*
X20026328Y12052475D01*
X20153041Y12141200D01*
X20210901Y12181714D01*
X20210903Y12181716D01*
X20212660Y12182946D01*
X20373504Y12343790D01*
X20443701Y12444041D01*
X20502749Y12528371D01*
X20502749Y12528372D01*
X20503975Y12530122D01*
X20600108Y12736279D01*
X20608250Y12766665D01*
X20658426Y12953925D01*
X20658426Y12953927D01*
X20658981Y12955997D01*
X20659274Y12959335D01*
X20678620Y13180474D01*
X20678806Y13182600D01*
X20671709Y13263725D01*
X20659168Y13407071D01*
X20659167Y13407076D01*
X20658981Y13409203D01*
X20631799Y13510650D01*
X20600662Y13626854D01*
X20600661Y13626856D01*
X20600108Y13628921D01*
X20503975Y13835078D01*
X20484091Y13863475D01*
X20374736Y14019651D01*
X20374734Y14019653D01*
X20373504Y14021410D01*
X20212660Y14182254D01*
X20026328Y14312725D01*
X19821601Y14408191D01*
X19796264Y14435841D01*
X19797900Y14473308D01*
X19821601Y14497009D01*
X19844608Y14507737D01*
X19941539Y14552937D01*
X20024392Y14591572D01*
X20024394Y14591573D01*
X20026328Y14592475D01*
X20028079Y14593701D01*
X20210901Y14721714D01*
X20210903Y14721716D01*
X20212660Y14722946D01*
X20373504Y14883790D01*
X20503975Y15070122D01*
X20523970Y15113000D01*
X20599204Y15274341D01*
X20600108Y15276279D01*
X20605168Y15295162D01*
X20658426Y15493925D01*
X20658426Y15493927D01*
X20658981Y15495997D01*
X20665337Y15568638D01*
X20678620Y15720474D01*
X20678806Y15722600D01*
X20676927Y15744082D01*
X20659168Y15947071D01*
X20659167Y15947076D01*
X20658981Y15949203D01*
X20600831Y16166225D01*
X20600662Y16166854D01*
X20600661Y16166856D01*
X20600108Y16168921D01*
X20503975Y16375078D01*
X20503296Y16376048D01*
X20498432Y16413016D01*
X20521264Y16442767D01*
X20558447Y16447659D01*
X20564513Y16445600D01*
X20592072Y16434184D01*
X20592076Y16434183D01*
X20595038Y16432956D01*
X20598219Y16432537D01*
X20598220Y16432537D01*
X20748617Y16412737D01*
X20751800Y16412318D01*
X20754983Y16412737D01*
X20905380Y16432537D01*
X20905381Y16432537D01*
X20908562Y16432956D01*
X20911524Y16434183D01*
X20911528Y16434184D01*
X21051675Y16492235D01*
X21051678Y16492237D01*
X21054641Y16493464D01*
X21143190Y16561410D01*
X21177533Y16587762D01*
X21180082Y16589718D01*
X21276336Y16715159D01*
X21277565Y16718125D01*
X21335616Y16858272D01*
X21335617Y16858276D01*
X21336844Y16861238D01*
X21339964Y16884933D01*
X21357063Y17014817D01*
X21357482Y17018000D01*
X21353972Y17044663D01*
X21337263Y17171580D01*
X21337263Y17171581D01*
X21336844Y17174762D01*
X21335617Y17177724D01*
X21335616Y17177728D01*
X21277565Y17317875D01*
X21277563Y17317878D01*
X21276336Y17320841D01*
X21199655Y17420774D01*
X21182038Y17443733D01*
X21180082Y17446282D01*
X21054641Y17542536D01*
X21051678Y17543763D01*
X21051675Y17543765D01*
X20911528Y17601816D01*
X20911524Y17601817D01*
X20908562Y17603044D01*
X20905381Y17603463D01*
X20905380Y17603463D01*
X20754983Y17623263D01*
X20751800Y17623682D01*
X20741038Y17622265D01*
X20704813Y17631971D01*
X20699994Y17636198D01*
X20598866Y17737327D01*
X20584514Y17771975D01*
X20589105Y17792683D01*
X20599204Y17814341D01*
X20600108Y17816279D01*
X20658981Y18035997D01*
X20665953Y18115681D01*
X20678620Y18260474D01*
X20678806Y18262600D01*
X20666140Y18407374D01*
X20659168Y18487071D01*
X20659167Y18487076D01*
X20658981Y18489203D01*
X20649290Y18525373D01*
X20600662Y18706854D01*
X20600661Y18706856D01*
X20600108Y18708921D01*
X20535300Y18847901D01*
X20522546Y18875253D01*
X20520910Y18912720D01*
X20546247Y18940370D01*
X20583714Y18942006D01*
X20606604Y18924752D01*
G37*
G04 %TD.AperFunction@% jlc*
G04 %TA.AperFunction,Conductor@% jlc*
G36*
X16887649Y20907689D02*
G01*
X16891669Y20907389D01*
X17142956Y20878102D01*
X17316368Y20857891D01*
X17320368Y20857256D01*
X17527609Y20815527D01*
X17739521Y20772857D01*
X17743440Y20771898D01*
X17999364Y20697926D01*
X18154187Y20653176D01*
X18158028Y20651892D01*
X18557574Y20499655D01*
X18561293Y20498059D01*
X18946903Y20313346D01*
X18950467Y20311454D01*
X19134990Y20203490D01*
X19319507Y20095529D01*
X19322915Y20093341D01*
X19672855Y19847684D01*
X19676071Y19845222D01*
X20004535Y19571502D01*
X20007535Y19568784D01*
X20162543Y19416233D01*
X20162820Y19415960D01*
X20177448Y19381427D01*
X20163374Y19346666D01*
X20128841Y19332038D01*
X20100347Y19340896D01*
X20026328Y19392725D01*
X20024356Y19393645D01*
X19936448Y19434637D01*
X19820171Y19488858D01*
X19818106Y19489411D01*
X19818104Y19489412D01*
X19602525Y19547176D01*
X19602523Y19547176D01*
X19600453Y19547731D01*
X19598326Y19547917D01*
X19598321Y19547918D01*
X19431678Y19562497D01*
X19431672Y19562497D01*
X19430612Y19562590D01*
X18567788Y19562590D01*
X18566728Y19562497D01*
X18566722Y19562497D01*
X18400079Y19547918D01*
X18400074Y19547917D01*
X18397947Y19547731D01*
X18395877Y19547176D01*
X18395875Y19547176D01*
X18180296Y19489412D01*
X18180294Y19489411D01*
X18178229Y19488858D01*
X18061952Y19434637D01*
X17974045Y19393645D01*
X17972072Y19392725D01*
X17970322Y19391499D01*
X17970321Y19391499D01*
X17817401Y19284423D01*
X17785740Y19262254D01*
X17624896Y19101410D01*
X17623666Y19099653D01*
X17623664Y19099651D01*
X17547291Y18990579D01*
X17494425Y18915078D01*
X17493523Y18913144D01*
X17493522Y18913142D01*
X17477546Y18878882D01*
X17398292Y18708921D01*
X17397739Y18706856D01*
X17397738Y18706854D01*
X17349111Y18525373D01*
X17339419Y18489203D01*
X17339233Y18487076D01*
X17339232Y18487071D01*
X17332260Y18407374D01*
X17319594Y18262600D01*
X17319780Y18260474D01*
X17332448Y18115681D01*
X17339419Y18035997D01*
X17398292Y17816279D01*
X17423795Y17761588D01*
X17490363Y17618834D01*
X17494425Y17610122D01*
X17495651Y17608372D01*
X17495651Y17608371D01*
X17616174Y17436247D01*
X17624896Y17423790D01*
X17785740Y17262946D01*
X17787497Y17261716D01*
X17787499Y17261714D01*
X17907444Y17177728D01*
X17972072Y17132475D01*
X17974006Y17131573D01*
X17974008Y17131572D01*
X17993680Y17122399D01*
X18154799Y17047268D01*
X18176799Y17037009D01*
X18202136Y17009359D01*
X18200500Y16971892D01*
X18176799Y16948191D01*
X18161631Y16941118D01*
X17983968Y16858272D01*
X17972072Y16852725D01*
X17970322Y16851499D01*
X17970321Y16851499D01*
X17838326Y16759075D01*
X17785740Y16722254D01*
X17624896Y16561410D01*
X17623666Y16559653D01*
X17623664Y16559651D01*
X17495651Y16376829D01*
X17494425Y16375078D01*
X17398292Y16168921D01*
X17395745Y16159417D01*
X17372917Y16129666D01*
X17348416Y16123100D01*
X16518389Y16123100D01*
X16483741Y16137452D01*
X16213798Y16407395D01*
X16199446Y16442043D01*
X16199865Y16448440D01*
X16200863Y16456019D01*
X16201282Y16459200D01*
X16190685Y16539696D01*
X16181063Y16612780D01*
X16181063Y16612781D01*
X16180644Y16615962D01*
X16179417Y16618924D01*
X16179416Y16618928D01*
X16121365Y16759075D01*
X16121363Y16759078D01*
X16120136Y16762041D01*
X16023882Y16887482D01*
X15898441Y16983736D01*
X15895478Y16984963D01*
X15895475Y16984965D01*
X15755328Y17043016D01*
X15755324Y17043017D01*
X15752362Y17044244D01*
X15749181Y17044663D01*
X15749180Y17044663D01*
X15598783Y17064463D01*
X15595600Y17064882D01*
X15592417Y17064463D01*
X15442020Y17044663D01*
X15442019Y17044663D01*
X15438838Y17044244D01*
X15435876Y17043017D01*
X15435872Y17043016D01*
X15295725Y16984965D01*
X15295722Y16984963D01*
X15292759Y16983736D01*
X15167318Y16887482D01*
X15071064Y16762041D01*
X15069837Y16759078D01*
X15069835Y16759075D01*
X15011784Y16618928D01*
X15011783Y16618924D01*
X15010556Y16615962D01*
X15010137Y16612781D01*
X15010137Y16612780D01*
X15000515Y16539696D01*
X14989918Y16459200D01*
X15010556Y16302438D01*
X15011783Y16299476D01*
X15011784Y16299472D01*
X15069835Y16159325D01*
X15071064Y16156359D01*
X15167318Y16030918D01*
X15292759Y15934664D01*
X15295722Y15933437D01*
X15295725Y15933435D01*
X15435872Y15875384D01*
X15435876Y15875383D01*
X15438838Y15874156D01*
X15442019Y15873737D01*
X15442020Y15873737D01*
X15592417Y15853937D01*
X15595600Y15853518D01*
X15606361Y15854935D01*
X15642585Y15845229D01*
X15647405Y15841002D01*
X16071291Y15417116D01*
X16071295Y15417113D01*
X16093858Y15394550D01*
X16097295Y15392799D01*
X16097299Y15392796D01*
X16118856Y15381812D01*
X16125412Y15377795D01*
X16144992Y15363569D01*
X16144997Y15363566D01*
X16148111Y15361304D01*
X16164140Y15356096D01*
X16174794Y15352634D01*
X16181897Y15349691D01*
X16203459Y15338705D01*
X16203460Y15338705D01*
X16206896Y15336954D01*
X16210699Y15336352D01*
X16210701Y15336351D01*
X16234607Y15332565D01*
X16242083Y15330770D01*
X16265100Y15323291D01*
X16265103Y15323291D01*
X16268767Y15322100D01*
X17348416Y15322100D01*
X17383064Y15307748D01*
X17395745Y15285785D01*
X17398292Y15276279D01*
X17399196Y15274341D01*
X17474431Y15113000D01*
X17494425Y15070122D01*
X17624896Y14883790D01*
X17785740Y14722946D01*
X17787497Y14721716D01*
X17787499Y14721714D01*
X17970321Y14593701D01*
X17972072Y14592475D01*
X17974006Y14591573D01*
X17974008Y14591572D01*
X18056861Y14552937D01*
X18153793Y14507737D01*
X18176799Y14497009D01*
X18202136Y14469359D01*
X18200500Y14431892D01*
X18176799Y14408191D01*
X17972072Y14312725D01*
X17785740Y14182254D01*
X17624896Y14021410D01*
X17623671Y14019661D01*
X17623663Y14019651D01*
X17622761Y14018363D01*
X17622377Y14018118D01*
X17622291Y14018016D01*
X17622259Y14018043D01*
X17591129Y13998217D01*
X17552798Y14007600D01*
X17450390Y14086180D01*
X17447841Y14088136D01*
X17444878Y14089363D01*
X17444875Y14089365D01*
X17304728Y14147416D01*
X17304724Y14147417D01*
X17301762Y14148644D01*
X17298581Y14149063D01*
X17298580Y14149063D01*
X17148183Y14168863D01*
X17145000Y14169282D01*
X17141817Y14168863D01*
X16991420Y14149063D01*
X16991419Y14149063D01*
X16988238Y14148644D01*
X16985276Y14147417D01*
X16985272Y14147416D01*
X16845125Y14089365D01*
X16845122Y14089363D01*
X16842159Y14088136D01*
X16839610Y14086180D01*
X16750910Y14018118D01*
X16716718Y13991882D01*
X16620464Y13866441D01*
X16619237Y13863478D01*
X16619235Y13863475D01*
X16561184Y13723328D01*
X16561183Y13723324D01*
X16559956Y13720362D01*
X16559537Y13717181D01*
X16559537Y13717180D01*
X16546667Y13619419D01*
X16539318Y13563600D01*
X16539737Y13560417D01*
X16540771Y13552567D01*
X16559956Y13406838D01*
X16561183Y13403876D01*
X16561184Y13403872D01*
X16619235Y13263725D01*
X16620464Y13260759D01*
X16716718Y13135318D01*
X16842159Y13039064D01*
X16845122Y13037837D01*
X16845125Y13037835D01*
X16985272Y12979784D01*
X16985276Y12979783D01*
X16988238Y12978556D01*
X16991419Y12978137D01*
X16991420Y12978137D01*
X17141817Y12958337D01*
X17145000Y12957918D01*
X17155762Y12959335D01*
X17191987Y12949629D01*
X17196806Y12945402D01*
X17287658Y12854550D01*
X17291093Y12852800D01*
X17312653Y12841814D01*
X17319205Y12837800D01*
X17322911Y12835108D01*
X17342509Y12803133D01*
X17333758Y12766665D01*
X17301783Y12747067D01*
X17298162Y12746782D01*
X17297400Y12746882D01*
X17165844Y12729562D01*
X17143820Y12726663D01*
X17143819Y12726663D01*
X17140638Y12726244D01*
X17137676Y12725017D01*
X17137672Y12725016D01*
X16997525Y12666965D01*
X16997522Y12666963D01*
X16994559Y12665736D01*
X16869118Y12569482D01*
X16867162Y12566933D01*
X16820991Y12506761D01*
X16772864Y12444041D01*
X16771637Y12441078D01*
X16771635Y12441075D01*
X16713584Y12300928D01*
X16713583Y12300924D01*
X16712356Y12297962D01*
X16691718Y12141200D01*
X16712356Y11984438D01*
X16713583Y11981476D01*
X16713584Y11981472D01*
X16760507Y11868191D01*
X16772864Y11838359D01*
X16869118Y11712918D01*
X16994559Y11616664D01*
X16997522Y11615437D01*
X16997525Y11615435D01*
X17137672Y11557384D01*
X17137676Y11557383D01*
X17140638Y11556156D01*
X17143819Y11555737D01*
X17143820Y11555737D01*
X17294217Y11535937D01*
X17297400Y11535518D01*
X17454162Y11556156D01*
X17469939Y11562691D01*
X17507442Y11562691D01*
X17523338Y11552069D01*
X17583098Y11492309D01*
X17597450Y11457661D01*
X17588588Y11429556D01*
X17494425Y11295078D01*
X17398292Y11088921D01*
X17397739Y11086856D01*
X17397738Y11086854D01*
X17373459Y10996241D01*
X17339419Y10869203D01*
X17339233Y10867076D01*
X17339232Y10867071D01*
X17324317Y10696583D01*
X17319594Y10642600D01*
X17319780Y10640474D01*
X17330757Y10515010D01*
X17339419Y10415997D01*
X17339974Y10413927D01*
X17339974Y10413925D01*
X17387654Y10235979D01*
X17398292Y10196279D01*
X17494425Y9990122D01*
X17495651Y9988372D01*
X17495651Y9988371D01*
X17612859Y9820981D01*
X17624896Y9803790D01*
X17785740Y9642946D01*
X17972072Y9512475D01*
X17974006Y9511573D01*
X17974008Y9511572D01*
X18176799Y9417009D01*
X18202136Y9389359D01*
X18200500Y9351892D01*
X18176799Y9328191D01*
X18049596Y9268875D01*
X17972072Y9232725D01*
X17970322Y9231499D01*
X17970321Y9231499D01*
X17897106Y9180233D01*
X17785740Y9102254D01*
X17624896Y8941410D01*
X17494425Y8755078D01*
X17398292Y8548921D01*
X17397739Y8546856D01*
X17397738Y8546854D01*
X17356265Y8392072D01*
X17339419Y8329203D01*
X17339233Y8327076D01*
X17339232Y8327071D01*
X17325049Y8164956D01*
X17319594Y8102600D01*
X17319780Y8100474D01*
X17336519Y7909148D01*
X17339419Y7875997D01*
X17339974Y7873927D01*
X17339974Y7873925D01*
X17356128Y7813639D01*
X17398292Y7656279D01*
X17494425Y7450122D01*
X17495651Y7448372D01*
X17495651Y7448371D01*
X17622185Y7267662D01*
X17624896Y7263790D01*
X17785740Y7102946D01*
X17787497Y7101716D01*
X17787499Y7101714D01*
X17904539Y7019762D01*
X17972072Y6972475D01*
X17974006Y6971573D01*
X17974008Y6971572D01*
X18176799Y6877009D01*
X18202136Y6849359D01*
X18200500Y6811892D01*
X18176799Y6788191D01*
X17972072Y6692725D01*
X17785740Y6562254D01*
X17624896Y6401410D01*
X17494425Y6215078D01*
X17398292Y6008921D01*
X17397739Y6006856D01*
X17397738Y6006854D01*
X17357473Y5856580D01*
X17339419Y5789203D01*
X17339233Y5787076D01*
X17339232Y5787071D01*
X17326312Y5639390D01*
X17319594Y5562600D01*
X17319780Y5560474D01*
X17338760Y5343533D01*
X17339419Y5335997D01*
X17339974Y5333927D01*
X17339974Y5333925D01*
X17381958Y5177238D01*
X17398292Y5116279D01*
X17399196Y5114341D01*
X17490845Y4917800D01*
X17494425Y4910122D01*
X17495651Y4908372D01*
X17495651Y4908371D01*
X17614966Y4737972D01*
X17624896Y4723790D01*
X17785740Y4562946D01*
X17787497Y4561716D01*
X17787499Y4561714D01*
X17942421Y4453237D01*
X17972072Y4432475D01*
X17974006Y4431573D01*
X17974008Y4431572D01*
X18176799Y4337009D01*
X18202136Y4309359D01*
X18200500Y4271892D01*
X18176799Y4248191D01*
X17972072Y4152725D01*
X17785740Y4022254D01*
X17624896Y3861410D01*
X17623666Y3859653D01*
X17623664Y3859651D01*
X17565767Y3776965D01*
X17494425Y3675078D01*
X17398292Y3468921D01*
X17397739Y3466856D01*
X17397738Y3466854D01*
X17344552Y3268358D01*
X17339419Y3249203D01*
X17319594Y3022600D01*
X17319780Y3020474D01*
X17337235Y2820962D01*
X17339419Y2795997D01*
X17339974Y2793927D01*
X17339974Y2793925D01*
X17397738Y2578346D01*
X17398292Y2576279D01*
X17494425Y2370122D01*
X17495651Y2368371D01*
X17588588Y2235643D01*
X17596706Y2199029D01*
X17583098Y2172890D01*
X16409259Y999052D01*
X16374611Y984700D01*
X9478403Y984700D01*
X9443755Y999052D01*
X9035237Y1407571D01*
X9035229Y1407579D01*
X9035225Y1407582D01*
X9012662Y1430145D01*
X9009225Y1431896D01*
X9009221Y1431899D01*
X8987666Y1442882D01*
X8981109Y1446899D01*
X8961525Y1461128D01*
X8961524Y1461129D01*
X8958410Y1463391D01*
X8931724Y1472062D01*
X8924621Y1475005D01*
X8903061Y1485990D01*
X8903060Y1485990D01*
X8899624Y1487741D01*
X8895821Y1488343D01*
X8895819Y1488344D01*
X8871913Y1492130D01*
X8864437Y1493925D01*
X8841420Y1501404D01*
X8841417Y1501404D01*
X8837753Y1502595D01*
X8642463Y1502595D01*
X8607815Y1516947D01*
X8603589Y1521765D01*
X8600520Y1525765D01*
X8575460Y1558424D01*
X8450019Y1654678D01*
X8447056Y1655905D01*
X8447053Y1655907D01*
X8306906Y1713958D01*
X8306902Y1713959D01*
X8303940Y1715186D01*
X8300759Y1715605D01*
X8300758Y1715605D01*
X8150361Y1735405D01*
X8147178Y1735824D01*
X8143995Y1735405D01*
X7993598Y1715605D01*
X7993597Y1715605D01*
X7990416Y1715186D01*
X7987454Y1713959D01*
X7987450Y1713958D01*
X7847303Y1655907D01*
X7847300Y1655905D01*
X7844337Y1654678D01*
X7718896Y1558424D01*
X7622642Y1432983D01*
X7621415Y1430020D01*
X7621413Y1430017D01*
X7563362Y1289870D01*
X7563361Y1289866D01*
X7562134Y1286904D01*
X7541496Y1130142D01*
X7562134Y973380D01*
X7563361Y970418D01*
X7563362Y970414D01*
X7617269Y840272D01*
X7622642Y827301D01*
X7718896Y701860D01*
X7844337Y605606D01*
X7847300Y604379D01*
X7847303Y604377D01*
X7987450Y546326D01*
X7987454Y546325D01*
X7990416Y545098D01*
X7993597Y544679D01*
X7993598Y544679D01*
X8143995Y524879D01*
X8147178Y524460D01*
X8150361Y524879D01*
X8300758Y544679D01*
X8300759Y544679D01*
X8303940Y545098D01*
X8306902Y546325D01*
X8306906Y546326D01*
X8447053Y604377D01*
X8447056Y604379D01*
X8450019Y605606D01*
X8559873Y689899D01*
X8596097Y699606D01*
X8624349Y685673D01*
X8785563Y524460D01*
X8925875Y384148D01*
X8940227Y349500D01*
X8925875Y314852D01*
X8891227Y300500D01*
X5034979Y300500D01*
X5000331Y314852D01*
X4999061Y317919D01*
X4994850Y310626D01*
X4965021Y300500D01*
X3134979Y300500D01*
X3100331Y314852D01*
X3099061Y317919D01*
X3094850Y310626D01*
X3065021Y300500D01*
X1334979Y300500D01*
X1300331Y314852D01*
X1299061Y317919D01*
X1294850Y310626D01*
X1265021Y300500D01*
X1030582Y300500D01*
X1022073Y301244D01*
X1004220Y304392D01*
X1004219Y304392D01*
X1000000Y305136D01*
X995780Y304392D01*
X989750Y303329D01*
X976440Y302821D01*
X868335Y313468D01*
X858915Y315342D01*
X736932Y352345D01*
X728058Y356021D01*
X615636Y416112D01*
X607649Y421449D01*
X509110Y502318D01*
X502318Y509110D01*
X421449Y607649D01*
X416112Y615636D01*
X356021Y728058D01*
X352345Y736932D01*
X315342Y858915D01*
X313468Y868336D01*
X306360Y940512D01*
X302821Y976440D01*
X303329Y989750D01*
X304392Y995780D01*
X305136Y1000000D01*
X694318Y1000000D01*
X714956Y843238D01*
X716183Y840276D01*
X716184Y840272D01*
X774235Y700125D01*
X775464Y697159D01*
X871718Y571718D01*
X997159Y475464D01*
X1000122Y474237D01*
X1000125Y474235D01*
X1140272Y416184D01*
X1140276Y416183D01*
X1143238Y414956D01*
X1146419Y414537D01*
X1146420Y414537D01*
X1271417Y398081D01*
X1299408Y381920D01*
X1300331Y384148D01*
X1328583Y398081D01*
X1453580Y414537D01*
X1453581Y414537D01*
X1456762Y414956D01*
X1459724Y416183D01*
X1459728Y416184D01*
X1599875Y474235D01*
X1599878Y474237D01*
X1602841Y475464D01*
X1728282Y571718D01*
X1824536Y697159D01*
X1825765Y700125D01*
X1883816Y840272D01*
X1883817Y840276D01*
X1885044Y843238D01*
X1905682Y1000000D01*
X2494318Y1000000D01*
X2514956Y843238D01*
X2516183Y840276D01*
X2516184Y840272D01*
X2574235Y700125D01*
X2575464Y697159D01*
X2671718Y571718D01*
X2797159Y475464D01*
X2800122Y474237D01*
X2800125Y474235D01*
X2940272Y416184D01*
X2940276Y416183D01*
X2943238Y414956D01*
X2946419Y414537D01*
X2946420Y414537D01*
X3071417Y398081D01*
X3099408Y381920D01*
X3100331Y384148D01*
X3128583Y398081D01*
X3253580Y414537D01*
X3253581Y414537D01*
X3256762Y414956D01*
X3259724Y416183D01*
X3259728Y416184D01*
X3399875Y474235D01*
X3399878Y474237D01*
X3402841Y475464D01*
X3528282Y571718D01*
X3624536Y697159D01*
X3625765Y700125D01*
X3683816Y840272D01*
X3683817Y840276D01*
X3685044Y843238D01*
X3705682Y1000000D01*
X4394318Y1000000D01*
X4414956Y843238D01*
X4416183Y840276D01*
X4416184Y840272D01*
X4474235Y700125D01*
X4475464Y697159D01*
X4571718Y571718D01*
X4697159Y475464D01*
X4700122Y474237D01*
X4700125Y474235D01*
X4840272Y416184D01*
X4840276Y416183D01*
X4843238Y414956D01*
X4846419Y414537D01*
X4846420Y414537D01*
X4971417Y398081D01*
X4999408Y381920D01*
X5000331Y384148D01*
X5028583Y398081D01*
X5153580Y414537D01*
X5153581Y414537D01*
X5156762Y414956D01*
X5159724Y416183D01*
X5159728Y416184D01*
X5299875Y474235D01*
X5299878Y474237D01*
X5302841Y475464D01*
X5428282Y571718D01*
X5524536Y697159D01*
X5525765Y700125D01*
X5583816Y840272D01*
X5583817Y840276D01*
X5585044Y843238D01*
X5605682Y1000000D01*
X5585044Y1156762D01*
X5583817Y1159724D01*
X5583816Y1159728D01*
X5525765Y1299875D01*
X5525763Y1299878D01*
X5524536Y1302841D01*
X5428282Y1428282D01*
X5302841Y1524536D01*
X5299878Y1525763D01*
X5299875Y1525765D01*
X5159728Y1583816D01*
X5159724Y1583817D01*
X5156762Y1585044D01*
X5153581Y1585463D01*
X5153580Y1585463D01*
X5003183Y1605263D01*
X5000000Y1605682D01*
X4996817Y1605263D01*
X4846420Y1585463D01*
X4846419Y1585463D01*
X4843238Y1585044D01*
X4840276Y1583817D01*
X4840272Y1583816D01*
X4700125Y1525765D01*
X4700122Y1525763D01*
X4697159Y1524536D01*
X4571718Y1428282D01*
X4475464Y1302841D01*
X4474237Y1299878D01*
X4474235Y1299875D01*
X4416184Y1159728D01*
X4416183Y1159724D01*
X4414956Y1156762D01*
X4394318Y1000000D01*
X3705682Y1000000D01*
X3685044Y1156762D01*
X3683817Y1159724D01*
X3683816Y1159728D01*
X3625765Y1299875D01*
X3625763Y1299878D01*
X3624536Y1302841D01*
X3528282Y1428282D01*
X3402841Y1524536D01*
X3399878Y1525763D01*
X3399875Y1525765D01*
X3259728Y1583816D01*
X3259724Y1583817D01*
X3256762Y1585044D01*
X3253581Y1585463D01*
X3253580Y1585463D01*
X3103183Y1605263D01*
X3100000Y1605682D01*
X3096817Y1605263D01*
X2946420Y1585463D01*
X2946419Y1585463D01*
X2943238Y1585044D01*
X2940276Y1583817D01*
X2940272Y1583816D01*
X2800125Y1525765D01*
X2800122Y1525763D01*
X2797159Y1524536D01*
X2671718Y1428282D01*
X2575464Y1302841D01*
X2574237Y1299878D01*
X2574235Y1299875D01*
X2516184Y1159728D01*
X2516183Y1159724D01*
X2514956Y1156762D01*
X2494318Y1000000D01*
X1905682Y1000000D01*
X1885044Y1156762D01*
X1883817Y1159724D01*
X1883816Y1159728D01*
X1825765Y1299875D01*
X1825763Y1299878D01*
X1824536Y1302841D01*
X1728282Y1428282D01*
X1602841Y1524536D01*
X1599878Y1525763D01*
X1599875Y1525765D01*
X1459728Y1583816D01*
X1459724Y1583817D01*
X1456762Y1585044D01*
X1453581Y1585463D01*
X1453580Y1585463D01*
X1303183Y1605263D01*
X1300000Y1605682D01*
X1296817Y1605263D01*
X1146420Y1585463D01*
X1146419Y1585463D01*
X1143238Y1585044D01*
X1140276Y1583817D01*
X1140272Y1583816D01*
X1000125Y1525765D01*
X1000122Y1525763D01*
X997159Y1524536D01*
X871718Y1428282D01*
X775464Y1302841D01*
X774237Y1299878D01*
X774235Y1299875D01*
X716184Y1159728D01*
X716183Y1159724D01*
X714956Y1156762D01*
X694318Y1000000D01*
X305136Y1000000D01*
X301244Y1022073D01*
X300500Y1030582D01*
X300500Y3022600D01*
X1155034Y3022600D01*
X1155220Y3020474D01*
X1172675Y2820962D01*
X1174859Y2795997D01*
X1175414Y2793927D01*
X1175414Y2793925D01*
X1233178Y2578346D01*
X1233732Y2576279D01*
X1329865Y2370122D01*
X1331091Y2368372D01*
X1331091Y2368371D01*
X1449666Y2199029D01*
X1460336Y2183790D01*
X1621180Y2022946D01*
X1807512Y1892475D01*
X2013669Y1796342D01*
X2015734Y1795789D01*
X2015736Y1795788D01*
X2231315Y1738024D01*
X2231317Y1738024D01*
X2233387Y1737469D01*
X2235514Y1737283D01*
X2235519Y1737282D01*
X2402162Y1722703D01*
X2402168Y1722703D01*
X2403228Y1722610D01*
X3266052Y1722610D01*
X3267112Y1722703D01*
X3267118Y1722703D01*
X3433761Y1737282D01*
X3433766Y1737283D01*
X3435893Y1737469D01*
X3437963Y1738024D01*
X3437965Y1738024D01*
X3653544Y1795788D01*
X3653546Y1795789D01*
X3655611Y1796342D01*
X3861768Y1892475D01*
X4048100Y2022946D01*
X4208944Y2183790D01*
X4219615Y2199029D01*
X4338189Y2368371D01*
X4338189Y2368372D01*
X4339415Y2370122D01*
X4435548Y2576279D01*
X4436102Y2578346D01*
X4493866Y2793925D01*
X4493866Y2793927D01*
X4494421Y2795997D01*
X4496606Y2820962D01*
X4514060Y3020474D01*
X4514246Y3022600D01*
X4494421Y3249203D01*
X4489289Y3268358D01*
X4436102Y3466854D01*
X4436101Y3466856D01*
X4435548Y3468921D01*
X4339415Y3675078D01*
X4218054Y3848400D01*
X4209937Y3885013D01*
X4223545Y3911152D01*
X4697541Y4385148D01*
X4732189Y4399500D01*
X7160526Y4399500D01*
X7190354Y4389374D01*
X7291759Y4311564D01*
X7294722Y4310337D01*
X7294725Y4310335D01*
X7434872Y4252284D01*
X7434876Y4252283D01*
X7437838Y4251056D01*
X7441019Y4250637D01*
X7441020Y4250637D01*
X7591417Y4230837D01*
X7594600Y4230418D01*
X7597783Y4230837D01*
X7748180Y4250637D01*
X7748181Y4250637D01*
X7751362Y4251056D01*
X7754324Y4252283D01*
X7754328Y4252284D01*
X7894475Y4310335D01*
X7894478Y4310337D01*
X7897441Y4311564D01*
X8022882Y4407818D01*
X8119136Y4533259D01*
X8130923Y4561714D01*
X8169747Y4655445D01*
X8196265Y4681964D01*
X8233768Y4681964D01*
X8249665Y4671342D01*
X9618002Y3303006D01*
X9632354Y3268358D01*
X9631935Y3261964D01*
X9630518Y3251200D01*
X9651156Y3094438D01*
X9652383Y3091476D01*
X9652384Y3091472D01*
X9710435Y2951325D01*
X9711664Y2948359D01*
X9807918Y2822918D01*
X9810467Y2820962D01*
X9870639Y2774791D01*
X9933359Y2726664D01*
X9936322Y2725437D01*
X9936325Y2725435D01*
X10076472Y2667384D01*
X10076476Y2667383D01*
X10079438Y2666156D01*
X10082619Y2665737D01*
X10082620Y2665737D01*
X10233017Y2645937D01*
X10236200Y2645518D01*
X10239383Y2645937D01*
X10389780Y2665737D01*
X10389781Y2665737D01*
X10392962Y2666156D01*
X10395924Y2667383D01*
X10395928Y2667384D01*
X10536075Y2725435D01*
X10536078Y2725437D01*
X10539041Y2726664D01*
X10601761Y2774791D01*
X10661933Y2820962D01*
X10664482Y2822918D01*
X10760736Y2948359D01*
X10761965Y2951325D01*
X10820016Y3091472D01*
X10820017Y3091476D01*
X10821244Y3094438D01*
X10841882Y3251200D01*
X10821244Y3407962D01*
X10820017Y3410924D01*
X10820016Y3410928D01*
X10761965Y3551075D01*
X10761963Y3551078D01*
X10760736Y3554041D01*
X10664482Y3679482D01*
X10539041Y3775736D01*
X10536078Y3776963D01*
X10536075Y3776965D01*
X10395928Y3835016D01*
X10395924Y3835017D01*
X10392962Y3836244D01*
X10389781Y3836663D01*
X10389780Y3836663D01*
X10239383Y3856463D01*
X10236200Y3856882D01*
X10225438Y3855465D01*
X10189213Y3865171D01*
X10184394Y3869398D01*
X9385116Y4668676D01*
X9370764Y4703324D01*
X9385116Y4737972D01*
X9402704Y4748129D01*
X9402362Y4748956D01*
X9545475Y4808235D01*
X9545478Y4808237D01*
X9548441Y4809464D01*
X9673882Y4905718D01*
X9680711Y4914617D01*
X9683153Y4917800D01*
X14192118Y4917800D01*
X14212756Y4761038D01*
X14213983Y4758076D01*
X14213984Y4758072D01*
X14256494Y4655445D01*
X14273264Y4614959D01*
X14369518Y4489518D01*
X14494959Y4393264D01*
X14497922Y4392037D01*
X14497925Y4392035D01*
X14638072Y4333984D01*
X14638076Y4333983D01*
X14641038Y4332756D01*
X14644219Y4332337D01*
X14644220Y4332337D01*
X14794617Y4312537D01*
X14797800Y4312118D01*
X14800983Y4312537D01*
X14951380Y4332337D01*
X14951381Y4332337D01*
X14954562Y4332756D01*
X14957524Y4333983D01*
X14957528Y4333984D01*
X15097675Y4392035D01*
X15097678Y4392037D01*
X15100641Y4393264D01*
X15148972Y4430349D01*
X15185196Y4440056D01*
X15208628Y4430349D01*
X15256959Y4393264D01*
X15259922Y4392037D01*
X15259925Y4392035D01*
X15400072Y4333984D01*
X15400076Y4333983D01*
X15403038Y4332756D01*
X15406219Y4332337D01*
X15406220Y4332337D01*
X15556617Y4312537D01*
X15559800Y4312118D01*
X15562983Y4312537D01*
X15713380Y4332337D01*
X15713381Y4332337D01*
X15716562Y4332756D01*
X15719524Y4333983D01*
X15719528Y4333984D01*
X15859675Y4392035D01*
X15859678Y4392037D01*
X15862641Y4393264D01*
X15988082Y4489518D01*
X16084336Y4614959D01*
X16101106Y4655445D01*
X16143616Y4758072D01*
X16143617Y4758076D01*
X16144844Y4761038D01*
X16165482Y4917800D01*
X16144844Y5074562D01*
X16143617Y5077524D01*
X16143616Y5077528D01*
X16085565Y5217675D01*
X16085563Y5217678D01*
X16084336Y5220641D01*
X16036209Y5283362D01*
X15990038Y5343533D01*
X15988082Y5346082D01*
X15862641Y5442336D01*
X15859678Y5443563D01*
X15859675Y5443565D01*
X15719528Y5501616D01*
X15719524Y5501617D01*
X15716562Y5502844D01*
X15713381Y5503263D01*
X15713380Y5503263D01*
X15562983Y5523063D01*
X15559800Y5523482D01*
X15556617Y5523063D01*
X15406220Y5503263D01*
X15406219Y5503263D01*
X15403038Y5502844D01*
X15400076Y5501617D01*
X15400072Y5501616D01*
X15259925Y5443565D01*
X15259922Y5443563D01*
X15256959Y5442336D01*
X15208628Y5405251D01*
X15172404Y5395544D01*
X15148972Y5405251D01*
X15100641Y5442336D01*
X15097678Y5443563D01*
X15097675Y5443565D01*
X14957528Y5501616D01*
X14957524Y5501617D01*
X14954562Y5502844D01*
X14951381Y5503263D01*
X14951380Y5503263D01*
X14800983Y5523063D01*
X14797800Y5523482D01*
X14794617Y5523063D01*
X14644220Y5503263D01*
X14644219Y5503263D01*
X14641038Y5502844D01*
X14638076Y5501617D01*
X14638072Y5501616D01*
X14497925Y5443565D01*
X14497922Y5443563D01*
X14494959Y5442336D01*
X14369518Y5346082D01*
X14367562Y5343533D01*
X14321391Y5283362D01*
X14273264Y5220641D01*
X14272037Y5217678D01*
X14272035Y5217675D01*
X14213984Y5077528D01*
X14213983Y5077524D01*
X14212756Y5074562D01*
X14192118Y4917800D01*
X9683153Y4917800D01*
X9768180Y5028610D01*
X9770136Y5031159D01*
X9771365Y5034125D01*
X9829416Y5174272D01*
X9829417Y5174276D01*
X9830644Y5177238D01*
X9833707Y5200500D01*
X9850863Y5330817D01*
X9851282Y5334000D01*
X9830644Y5490762D01*
X9829417Y5493724D01*
X9829416Y5493728D01*
X9771365Y5633875D01*
X9771363Y5633878D01*
X9770136Y5636841D01*
X9673882Y5762282D01*
X9636098Y5791275D01*
X9550990Y5856580D01*
X9548441Y5858536D01*
X9545478Y5859763D01*
X9545475Y5859765D01*
X9405328Y5917816D01*
X9405324Y5917817D01*
X9402362Y5919044D01*
X9399181Y5919463D01*
X9399180Y5919463D01*
X9248783Y5939263D01*
X9245600Y5939682D01*
X9234839Y5938265D01*
X9198615Y5947971D01*
X9193795Y5952198D01*
X8744509Y6401484D01*
X8744505Y6401487D01*
X8721942Y6424050D01*
X8718505Y6425801D01*
X8718501Y6425804D01*
X8696946Y6436787D01*
X8690389Y6440804D01*
X8670805Y6455033D01*
X8670804Y6455034D01*
X8667690Y6457296D01*
X8641004Y6465967D01*
X8633901Y6468910D01*
X8612341Y6479895D01*
X8612340Y6479895D01*
X8608904Y6481646D01*
X8605101Y6482248D01*
X8605099Y6482249D01*
X8581193Y6486035D01*
X8573717Y6487830D01*
X8550700Y6495309D01*
X8550697Y6495309D01*
X8547033Y6496500D01*
X6235767Y6496500D01*
X6232103Y6495309D01*
X6232100Y6495309D01*
X6209083Y6487830D01*
X6201607Y6486035D01*
X6177701Y6482249D01*
X6177699Y6482248D01*
X6173896Y6481646D01*
X6148898Y6468909D01*
X6141799Y6465968D01*
X6129615Y6462009D01*
X6118776Y6458488D01*
X6118775Y6458487D01*
X6115111Y6457297D01*
X6111995Y6455033D01*
X6111993Y6455032D01*
X6092410Y6440804D01*
X6085855Y6436787D01*
X6060858Y6424050D01*
X6038295Y6401487D01*
X6038291Y6401484D01*
X5614259Y5977452D01*
X5579611Y5963100D01*
X4485424Y5963100D01*
X4450776Y5977452D01*
X4438095Y5999415D01*
X4435548Y6008921D01*
X4339415Y6215078D01*
X4208944Y6401410D01*
X4048100Y6562254D01*
X3861768Y6692725D01*
X3657041Y6788191D01*
X3631704Y6815841D01*
X3633340Y6853308D01*
X3657041Y6877009D01*
X3859832Y6971572D01*
X3859834Y6971573D01*
X3861768Y6972475D01*
X3923411Y7015638D01*
X3951516Y7024500D01*
X9701460Y7024500D01*
X9731289Y7014374D01*
X9847159Y6925464D01*
X9850122Y6924237D01*
X9850125Y6924235D01*
X9990272Y6866184D01*
X9990276Y6866183D01*
X9993238Y6864956D01*
X9996419Y6864537D01*
X9996420Y6864537D01*
X10146817Y6844737D01*
X10150000Y6844318D01*
X10153183Y6844737D01*
X10303580Y6864537D01*
X10303581Y6864537D01*
X10306762Y6864956D01*
X10309724Y6866183D01*
X10309728Y6866184D01*
X10449875Y6924235D01*
X10449878Y6924237D01*
X10452841Y6925464D01*
X10578282Y7021718D01*
X10674536Y7147159D01*
X10706229Y7223673D01*
X10734230Y7291272D01*
X10760749Y7317791D01*
X10801745Y7316181D01*
X10807745Y7313124D01*
X10814301Y7309106D01*
X10833881Y7294880D01*
X10833886Y7294877D01*
X10837000Y7292615D01*
X10853029Y7287407D01*
X10863683Y7283945D01*
X10870786Y7281002D01*
X10892348Y7270016D01*
X10892349Y7270016D01*
X10895785Y7268265D01*
X10899588Y7267663D01*
X10899590Y7267662D01*
X10923496Y7263876D01*
X10930972Y7262081D01*
X10953989Y7254602D01*
X10953992Y7254602D01*
X10957656Y7253411D01*
X11070148Y7253411D01*
X11104796Y7239059D01*
X11109017Y7234246D01*
X11115629Y7225629D01*
X11241070Y7129375D01*
X11244033Y7128148D01*
X11244036Y7128146D01*
X11384183Y7070095D01*
X11384187Y7070094D01*
X11387149Y7068867D01*
X11390330Y7068448D01*
X11390331Y7068448D01*
X11540728Y7048648D01*
X11543911Y7048229D01*
X11547094Y7048648D01*
X11697491Y7068448D01*
X11697492Y7068448D01*
X11700673Y7068867D01*
X11703635Y7070094D01*
X11703639Y7070095D01*
X11843786Y7128146D01*
X11843789Y7128148D01*
X11846752Y7129375D01*
X11972193Y7225629D01*
X12068447Y7351070D01*
X12069676Y7354036D01*
X12127727Y7494183D01*
X12127728Y7494187D01*
X12128955Y7497149D01*
X12149593Y7653911D01*
X12128955Y7810673D01*
X12127728Y7813635D01*
X12127727Y7813639D01*
X12069676Y7953786D01*
X12069674Y7953789D01*
X12068447Y7956752D01*
X11972193Y8082193D01*
X11846752Y8178447D01*
X11843789Y8179674D01*
X11843786Y8179676D01*
X11752943Y8217304D01*
X11726425Y8243823D01*
X11726425Y8281326D01*
X11741865Y8301448D01*
X11768282Y8321718D01*
X11772390Y8327071D01*
X11862580Y8444610D01*
X11864536Y8447159D01*
X11865765Y8450125D01*
X11923816Y8590272D01*
X11923817Y8590276D01*
X11925044Y8593238D01*
X11945682Y8750000D01*
X11945263Y8753183D01*
X11925463Y8903580D01*
X11925463Y8903581D01*
X11925044Y8906762D01*
X11923817Y8909724D01*
X11923816Y8909728D01*
X11865765Y9049875D01*
X11865763Y9049878D01*
X11864536Y9052841D01*
X11768282Y9178282D01*
X11751542Y9191127D01*
X11732791Y9223604D01*
X11742497Y9259829D01*
X11751537Y9268869D01*
X11768282Y9281718D01*
X11864536Y9407159D01*
X11868616Y9417009D01*
X11923816Y9550272D01*
X11923817Y9550276D01*
X11925044Y9553238D01*
X11945682Y9710000D01*
X11925044Y9866762D01*
X11923817Y9869724D01*
X11923816Y9869728D01*
X11865765Y10009875D01*
X11865763Y10009878D01*
X11864536Y10012841D01*
X11768282Y10138282D01*
X11730496Y10167276D01*
X11711744Y10199754D01*
X11721451Y10235979D01*
X11730495Y10245024D01*
X11756682Y10265118D01*
X11852936Y10390559D01*
X11864356Y10418129D01*
X11912216Y10533672D01*
X11912217Y10533676D01*
X11913444Y10536638D01*
X11934082Y10693400D01*
X11913444Y10850162D01*
X11912217Y10853124D01*
X11912216Y10853128D01*
X11854165Y10993275D01*
X11854163Y10993278D01*
X11852936Y10996241D01*
X11756682Y11121682D01*
X11631241Y11217936D01*
X11628278Y11219163D01*
X11628275Y11219165D01*
X11488128Y11277216D01*
X11488124Y11277217D01*
X11485162Y11278444D01*
X11481981Y11278863D01*
X11481980Y11278863D01*
X11331583Y11298663D01*
X11328400Y11299082D01*
X11325217Y11298663D01*
X11174820Y11278863D01*
X11174819Y11278863D01*
X11171638Y11278444D01*
X11168676Y11277217D01*
X11168672Y11277216D01*
X11028525Y11219165D01*
X11028522Y11219163D01*
X11025559Y11217936D01*
X10900118Y11121682D01*
X10803864Y10996241D01*
X10802637Y10993278D01*
X10802635Y10993275D01*
X10744584Y10853128D01*
X10744583Y10853124D01*
X10743356Y10850162D01*
X10722718Y10693400D01*
X10743356Y10536638D01*
X10744583Y10533676D01*
X10744584Y10533672D01*
X10792444Y10418129D01*
X10803864Y10390559D01*
X10900118Y10265118D01*
X10902667Y10263162D01*
X10937904Y10236124D01*
X10956656Y10203646D01*
X10946949Y10167421D01*
X10937906Y10158377D01*
X10911718Y10138282D01*
X10815464Y10012841D01*
X10814237Y10009878D01*
X10814235Y10009875D01*
X10756184Y9869728D01*
X10756183Y9869724D01*
X10754956Y9866762D01*
X10734318Y9710000D01*
X10754956Y9553238D01*
X10756183Y9550276D01*
X10756184Y9550272D01*
X10811384Y9417009D01*
X10815464Y9407159D01*
X10911718Y9281718D01*
X10928458Y9268873D01*
X10947209Y9236396D01*
X10937503Y9200171D01*
X10928463Y9191131D01*
X10911718Y9178282D01*
X10815464Y9052841D01*
X10814237Y9049878D01*
X10814235Y9049875D01*
X10756184Y8909728D01*
X10756183Y8909724D01*
X10754956Y8906762D01*
X10754537Y8903581D01*
X10754537Y8903580D01*
X10734737Y8753183D01*
X10734318Y8750000D01*
X10754956Y8593238D01*
X10756184Y8590274D01*
X10756185Y8590269D01*
X10760633Y8579531D01*
X10760633Y8542028D01*
X10734114Y8515510D01*
X10700221Y8514178D01*
X10682404Y8519967D01*
X10675301Y8522910D01*
X10653741Y8533895D01*
X10653740Y8533895D01*
X10650304Y8535646D01*
X10646501Y8536248D01*
X10646499Y8536249D01*
X10622593Y8540035D01*
X10615117Y8541830D01*
X10592100Y8549309D01*
X10592097Y8549309D01*
X10588433Y8550500D01*
X5561189Y8550500D01*
X5526541Y8564852D01*
X4270412Y9820981D01*
X4256060Y9855629D01*
X4264922Y9883734D01*
X4338184Y9988363D01*
X4338189Y9988371D01*
X4339415Y9990122D01*
X4435548Y10196279D01*
X4446186Y10235979D01*
X4493866Y10413925D01*
X4493866Y10413927D01*
X4494421Y10415997D01*
X4503084Y10515010D01*
X4514060Y10640474D01*
X4514246Y10642600D01*
X4509523Y10696583D01*
X4494608Y10867071D01*
X4494607Y10867076D01*
X4494421Y10869203D01*
X4460382Y10996241D01*
X4436102Y11086854D01*
X4436101Y11086856D01*
X4435548Y11088921D01*
X4339415Y11295078D01*
X4280694Y11378940D01*
X4210176Y11479651D01*
X4210174Y11479653D01*
X4208944Y11481410D01*
X4048100Y11642254D01*
X3947182Y11712918D01*
X3863519Y11771499D01*
X3863518Y11771499D01*
X3861768Y11772725D01*
X3657041Y11868191D01*
X3631704Y11895841D01*
X3633340Y11933308D01*
X3657041Y11957009D01*
X3722687Y11987620D01*
X3861768Y12052475D01*
X3988481Y12141200D01*
X4046341Y12181714D01*
X4046343Y12181716D01*
X4048100Y12182946D01*
X4208944Y12343790D01*
X4279141Y12444041D01*
X4338189Y12528371D01*
X4338189Y12528372D01*
X4339415Y12530122D01*
X4356581Y12566933D01*
X4411183Y12684028D01*
X4438833Y12709365D01*
X4476300Y12707729D01*
X4490240Y12697968D01*
X6608471Y10579737D01*
X6619093Y10563841D01*
X6638264Y10517559D01*
X6734518Y10392118D01*
X6859959Y10295864D01*
X6862922Y10294637D01*
X6862925Y10294635D01*
X7003072Y10236584D01*
X7003076Y10236583D01*
X7006038Y10235356D01*
X7009219Y10234937D01*
X7009220Y10234937D01*
X7159617Y10215137D01*
X7162800Y10214718D01*
X7165983Y10215137D01*
X7316380Y10234937D01*
X7316381Y10234937D01*
X7319562Y10235356D01*
X7322524Y10236583D01*
X7322528Y10236584D01*
X7462675Y10294635D01*
X7462678Y10294637D01*
X7465641Y10295864D01*
X7591082Y10392118D01*
X7687336Y10517559D01*
X7688565Y10520526D01*
X7746616Y10660672D01*
X7746617Y10660676D01*
X7747844Y10663638D01*
X7768482Y10820400D01*
X7747844Y10977162D01*
X7746617Y10980124D01*
X7746616Y10980128D01*
X7688565Y11120275D01*
X7688563Y11120278D01*
X7687336Y11123241D01*
X7591082Y11248682D01*
X7465641Y11344936D01*
X7462678Y11346163D01*
X7462675Y11346165D01*
X7322528Y11404216D01*
X7322524Y11404217D01*
X7319562Y11405444D01*
X7316381Y11405863D01*
X7316380Y11405863D01*
X7165983Y11425663D01*
X7162800Y11426082D01*
X7159617Y11425663D01*
X7009220Y11405863D01*
X7009219Y11405863D01*
X7006038Y11405444D01*
X6972300Y11391469D01*
X6934798Y11391469D01*
X6918901Y11402091D01*
X5879918Y12441075D01*
X4832909Y13488084D01*
X4832905Y13488087D01*
X4810342Y13510650D01*
X4806905Y13512401D01*
X4806901Y13512404D01*
X4785346Y13523387D01*
X4778789Y13527404D01*
X4759205Y13541633D01*
X4759204Y13541634D01*
X4756090Y13543896D01*
X4729404Y13552567D01*
X4722301Y13555510D01*
X4700741Y13566495D01*
X4700740Y13566495D01*
X4697304Y13568246D01*
X4693501Y13568848D01*
X4693499Y13568849D01*
X4669593Y13572635D01*
X4662117Y13574430D01*
X4639100Y13581909D01*
X4639097Y13581909D01*
X4635433Y13583100D01*
X4485424Y13583100D01*
X4450776Y13597452D01*
X4438095Y13619415D01*
X4435548Y13628921D01*
X4339415Y13835078D01*
X4319531Y13863475D01*
X4210176Y14019651D01*
X4210174Y14019653D01*
X4208944Y14021410D01*
X4048100Y14182254D01*
X3861768Y14312725D01*
X3655611Y14408858D01*
X3653546Y14409411D01*
X3653544Y14409412D01*
X3437965Y14467176D01*
X3437963Y14467176D01*
X3435893Y14467731D01*
X3433766Y14467917D01*
X3433761Y14467918D01*
X3267118Y14482497D01*
X3267112Y14482497D01*
X3266052Y14482590D01*
X2403228Y14482590D01*
X2402168Y14482497D01*
X2402162Y14482497D01*
X2235519Y14467918D01*
X2235514Y14467917D01*
X2233387Y14467731D01*
X2231317Y14467176D01*
X2231315Y14467176D01*
X2015736Y14409412D01*
X2015734Y14409411D01*
X2013669Y14408858D01*
X1807512Y14312725D01*
X1621180Y14182254D01*
X1460336Y14021410D01*
X1459106Y14019653D01*
X1459104Y14019651D01*
X1349749Y13863475D01*
X1329865Y13835078D01*
X1233732Y13628921D01*
X1233179Y13626856D01*
X1233178Y13626854D01*
X1202042Y13510650D01*
X1174859Y13409203D01*
X1174673Y13407076D01*
X1174672Y13407071D01*
X1162131Y13263725D01*
X1155034Y13182600D01*
X1155220Y13180474D01*
X1174567Y12959335D01*
X1174859Y12955997D01*
X1175414Y12953927D01*
X1175414Y12953925D01*
X1225590Y12766665D01*
X1233732Y12736279D01*
X1329865Y12530122D01*
X1331091Y12528372D01*
X1331091Y12528371D01*
X1390140Y12444041D01*
X1460336Y12343790D01*
X1621180Y12182946D01*
X1622937Y12181716D01*
X1622939Y12181714D01*
X1680799Y12141200D01*
X1807512Y12052475D01*
X1946594Y11987620D01*
X2012239Y11957009D01*
X2037576Y11929359D01*
X2035940Y11891892D01*
X2012239Y11868191D01*
X1807512Y11772725D01*
X1805762Y11771499D01*
X1805761Y11771499D01*
X1722099Y11712918D01*
X1621180Y11642254D01*
X1460336Y11481410D01*
X1459106Y11479653D01*
X1459104Y11479651D01*
X1388586Y11378940D01*
X1329865Y11295078D01*
X1233732Y11088921D01*
X1233179Y11086856D01*
X1233178Y11086854D01*
X1208899Y10996241D01*
X1174859Y10869203D01*
X1174673Y10867076D01*
X1174672Y10867071D01*
X1159757Y10696583D01*
X1155034Y10642600D01*
X1155220Y10640474D01*
X1166197Y10515010D01*
X1174859Y10415997D01*
X1175414Y10413927D01*
X1175414Y10413925D01*
X1223094Y10235979D01*
X1233732Y10196279D01*
X1329865Y9990122D01*
X1331091Y9988372D01*
X1331091Y9988371D01*
X1448299Y9820981D01*
X1460336Y9803790D01*
X1621180Y9642946D01*
X1807512Y9512475D01*
X1809446Y9511573D01*
X1809448Y9511572D01*
X2012239Y9417009D01*
X2037576Y9389359D01*
X2035940Y9351892D01*
X2012239Y9328191D01*
X1885036Y9268875D01*
X1807512Y9232725D01*
X1805762Y9231499D01*
X1805761Y9231499D01*
X1732546Y9180233D01*
X1621180Y9102254D01*
X1460336Y8941410D01*
X1329865Y8755078D01*
X1233732Y8548921D01*
X1233179Y8546856D01*
X1233178Y8546854D01*
X1191705Y8392072D01*
X1174859Y8329203D01*
X1174673Y8327076D01*
X1174672Y8327071D01*
X1160489Y8164956D01*
X1155034Y8102600D01*
X1155220Y8100474D01*
X1171959Y7909148D01*
X1174859Y7875997D01*
X1175414Y7873927D01*
X1175414Y7873925D01*
X1191568Y7813639D01*
X1233732Y7656279D01*
X1329865Y7450122D01*
X1331091Y7448372D01*
X1331091Y7448371D01*
X1457625Y7267662D01*
X1460336Y7263790D01*
X1621180Y7102946D01*
X1622937Y7101716D01*
X1622939Y7101714D01*
X1739979Y7019762D01*
X1807512Y6972475D01*
X1809446Y6971573D01*
X1809448Y6971572D01*
X2012239Y6877009D01*
X2037576Y6849359D01*
X2035940Y6811892D01*
X2012239Y6788191D01*
X1807512Y6692725D01*
X1621180Y6562254D01*
X1460336Y6401410D01*
X1329865Y6215078D01*
X1233732Y6008921D01*
X1233179Y6006856D01*
X1233178Y6006854D01*
X1192913Y5856580D01*
X1174859Y5789203D01*
X1174673Y5787076D01*
X1174672Y5787071D01*
X1161752Y5639390D01*
X1155034Y5562600D01*
X1155220Y5560474D01*
X1174200Y5343533D01*
X1174859Y5335997D01*
X1175414Y5333927D01*
X1175414Y5333925D01*
X1217398Y5177238D01*
X1233732Y5116279D01*
X1234636Y5114341D01*
X1326285Y4917800D01*
X1329865Y4910122D01*
X1331091Y4908372D01*
X1331091Y4908371D01*
X1450406Y4737972D01*
X1460336Y4723790D01*
X1621180Y4562946D01*
X1622937Y4561716D01*
X1622939Y4561714D01*
X1777861Y4453237D01*
X1807512Y4432475D01*
X1809446Y4431573D01*
X1809448Y4431572D01*
X2012239Y4337009D01*
X2037576Y4309359D01*
X2035940Y4271892D01*
X2012239Y4248191D01*
X1807512Y4152725D01*
X1621180Y4022254D01*
X1460336Y3861410D01*
X1459106Y3859653D01*
X1459104Y3859651D01*
X1401207Y3776965D01*
X1329865Y3675078D01*
X1233732Y3468921D01*
X1233179Y3466856D01*
X1233178Y3466854D01*
X1179992Y3268358D01*
X1174859Y3249203D01*
X1155034Y3022600D01*
X300500Y3022600D01*
X300500Y15113000D01*
X9859118Y15113000D01*
X9859537Y15109817D01*
X9876803Y14978672D01*
X9879756Y14956238D01*
X9880983Y14953276D01*
X9880984Y14953272D01*
X9939035Y14813125D01*
X9940264Y14810159D01*
X10036518Y14684718D01*
X10039067Y14682762D01*
X10059027Y14667446D01*
X10161959Y14588464D01*
X10164922Y14587237D01*
X10164925Y14587235D01*
X10305072Y14529184D01*
X10305076Y14529183D01*
X10308038Y14527956D01*
X10311219Y14527537D01*
X10311220Y14527537D01*
X10461617Y14507737D01*
X10464800Y14507318D01*
X10467983Y14507737D01*
X10618380Y14527537D01*
X10618381Y14527537D01*
X10621562Y14527956D01*
X10624524Y14529183D01*
X10624528Y14529184D01*
X10764675Y14587235D01*
X10764678Y14587237D01*
X10767641Y14588464D01*
X10857923Y14657739D01*
X10894147Y14667446D01*
X10917579Y14657739D01*
X10974759Y14613864D01*
X10977722Y14612637D01*
X10977725Y14612635D01*
X11117872Y14554584D01*
X11117876Y14554583D01*
X11120838Y14553356D01*
X11124019Y14552937D01*
X11124020Y14552937D01*
X11274417Y14533137D01*
X11277600Y14532718D01*
X11280783Y14533137D01*
X11431180Y14552937D01*
X11431181Y14552937D01*
X11434362Y14553356D01*
X11437324Y14554583D01*
X11437328Y14554584D01*
X11577475Y14612635D01*
X11577478Y14612637D01*
X11580441Y14613864D01*
X11650271Y14667446D01*
X11703333Y14708162D01*
X11705882Y14710118D01*
X11802136Y14835559D01*
X11803365Y14838525D01*
X11861416Y14978672D01*
X11861417Y14978676D01*
X11862644Y14981638D01*
X11883282Y15138400D01*
X11865988Y15269762D01*
X11863063Y15291980D01*
X11863063Y15291981D01*
X11862644Y15295162D01*
X11861417Y15298124D01*
X11861416Y15298128D01*
X11803365Y15438275D01*
X11803363Y15438278D01*
X11802136Y15441241D01*
X11705882Y15566682D01*
X11700551Y15570773D01*
X11582990Y15660980D01*
X11580441Y15662936D01*
X11577478Y15664163D01*
X11577475Y15664165D01*
X11437328Y15722216D01*
X11437324Y15722217D01*
X11434362Y15723444D01*
X11431181Y15723863D01*
X11431180Y15723863D01*
X11280783Y15743663D01*
X11277600Y15744082D01*
X11274417Y15743663D01*
X11124020Y15723863D01*
X11124019Y15723863D01*
X11120838Y15723444D01*
X11117876Y15722217D01*
X11117872Y15722216D01*
X10977725Y15664165D01*
X10977722Y15664163D01*
X10974759Y15662936D01*
X10884477Y15593661D01*
X10848253Y15583954D01*
X10824821Y15593661D01*
X10767641Y15637536D01*
X10764678Y15638763D01*
X10764675Y15638765D01*
X10624528Y15696816D01*
X10624524Y15696817D01*
X10621562Y15698044D01*
X10618381Y15698463D01*
X10618380Y15698463D01*
X10467983Y15718263D01*
X10464800Y15718682D01*
X10461617Y15718263D01*
X10311220Y15698463D01*
X10311219Y15698463D01*
X10308038Y15698044D01*
X10305076Y15696817D01*
X10305072Y15696816D01*
X10164925Y15638765D01*
X10164922Y15638763D01*
X10161959Y15637536D01*
X10159410Y15635580D01*
X10074952Y15570773D01*
X10036518Y15541282D01*
X9940264Y15415841D01*
X9939037Y15412878D01*
X9939035Y15412875D01*
X9880984Y15272728D01*
X9880983Y15272724D01*
X9879756Y15269762D01*
X9859118Y15113000D01*
X300500Y15113000D01*
X300500Y16153382D01*
X302213Y16166225D01*
X302759Y16168235D01*
X302759Y16168236D01*
X303883Y16172374D01*
X302516Y16188632D01*
X302770Y16199187D01*
X335110Y16442767D01*
X355808Y16598655D01*
X356506Y16602639D01*
X360058Y16618928D01*
X447584Y17020372D01*
X448609Y17024290D01*
X573880Y17433097D01*
X575226Y17436917D01*
X733818Y17833964D01*
X735474Y17837659D01*
X926322Y18220271D01*
X928271Y18223805D01*
X1076808Y18468615D01*
X1107051Y18490792D01*
X1144118Y18485089D01*
X1166295Y18454846D01*
X1167700Y18443197D01*
X1167700Y18409519D01*
X1167514Y18405248D01*
X1155034Y18262600D01*
X1155220Y18260474D01*
X1167514Y18119952D01*
X1167700Y18115681D01*
X1167700Y17650458D01*
X1168641Y17626499D01*
X1169244Y17618834D01*
X1172064Y17595003D01*
X1172141Y17594514D01*
X1172142Y17594510D01*
X1189673Y17483821D01*
X1189824Y17482868D01*
X1201017Y17436247D01*
X1201314Y17435332D01*
X1201316Y17435326D01*
X1205065Y17423790D01*
X1205755Y17421666D01*
X1206120Y17420785D01*
X1206124Y17420774D01*
X1214927Y17399524D01*
X1224099Y17377383D01*
X1273868Y17279706D01*
X1298919Y17238826D01*
X1307930Y17226424D01*
X1339060Y17189977D01*
X1416577Y17112460D01*
X1453024Y17081330D01*
X1465426Y17072319D01*
X1506306Y17047268D01*
X1603983Y16997499D01*
X1626125Y16988327D01*
X1647374Y16979524D01*
X1647385Y16979520D01*
X1648266Y16979155D01*
X1649184Y16978857D01*
X1649194Y16978853D01*
X1661926Y16974716D01*
X1661932Y16974714D01*
X1662847Y16974417D01*
X1688622Y16968229D01*
X1708526Y16963450D01*
X1708530Y16963449D01*
X1709468Y16963224D01*
X1710419Y16963073D01*
X1710421Y16963073D01*
X1821110Y16945542D01*
X1821114Y16945541D01*
X1821603Y16945464D01*
X1845434Y16942644D01*
X1853099Y16942041D01*
X1853551Y16942023D01*
X1853572Y16942022D01*
X1876590Y16941118D01*
X1876609Y16941118D01*
X1877058Y16941100D01*
X5946142Y16941100D01*
X5946591Y16941118D01*
X5946610Y16941118D01*
X5969628Y16942022D01*
X5969649Y16942023D01*
X5970101Y16942041D01*
X5977766Y16942644D01*
X6001597Y16945464D01*
X6002086Y16945541D01*
X6002090Y16945542D01*
X6112779Y16963073D01*
X6112781Y16963073D01*
X6113732Y16963224D01*
X6114670Y16963449D01*
X6114674Y16963450D01*
X6134578Y16968229D01*
X6160353Y16974417D01*
X6161268Y16974714D01*
X6161274Y16974716D01*
X6174006Y16978853D01*
X6174016Y16978857D01*
X6174934Y16979155D01*
X6175815Y16979520D01*
X6175826Y16979524D01*
X6197075Y16988327D01*
X6219217Y16997499D01*
X6316894Y17047268D01*
X6357774Y17072319D01*
X6370176Y17081330D01*
X6406623Y17112460D01*
X6484140Y17189977D01*
X6515270Y17226424D01*
X6524281Y17238826D01*
X6549332Y17279706D01*
X6599101Y17377383D01*
X6608273Y17399524D01*
X6617076Y17420774D01*
X6617080Y17420785D01*
X6617445Y17421666D01*
X6618136Y17423790D01*
X6621884Y17435326D01*
X6621886Y17435332D01*
X6622183Y17436247D01*
X6633376Y17482868D01*
X6633527Y17483821D01*
X6651058Y17594510D01*
X6651059Y17594514D01*
X6651136Y17595003D01*
X6653956Y17618834D01*
X6654559Y17626499D01*
X6655500Y17650458D01*
X6655500Y18823942D01*
X6655482Y18824410D01*
X6654578Y18847428D01*
X6654577Y18847449D01*
X6654559Y18847901D01*
X6653956Y18855566D01*
X6651136Y18879397D01*
X6645792Y18913142D01*
X6633527Y18990579D01*
X6633527Y18990581D01*
X6633376Y18991532D01*
X6622183Y19038153D01*
X6617445Y19052734D01*
X6617080Y19053615D01*
X6617076Y19053626D01*
X6608273Y19074875D01*
X6599101Y19097017D01*
X6561660Y19170499D01*
X8670630Y19170499D01*
X8699280Y19003767D01*
X8700396Y19001145D01*
X8700396Y19001144D01*
X8725560Y18942006D01*
X8765518Y18848098D01*
X8865791Y18711842D01*
X8867959Y18710000D01*
X8867961Y18709998D01*
X8869229Y18708921D01*
X8994720Y18602308D01*
X9145389Y18525373D01*
X9148157Y18524696D01*
X9148156Y18524696D01*
X9307598Y18485680D01*
X9307604Y18485679D01*
X9309717Y18485162D01*
X9320388Y18484500D01*
X9442363Y18484500D01*
X9568037Y18499152D01*
X9727061Y18556875D01*
X9729438Y18558434D01*
X9729441Y18558435D01*
X9794387Y18601016D01*
X9868540Y18649633D01*
X9984885Y18772450D01*
X10069856Y18918738D01*
X10071677Y18924751D01*
X10118071Y19077928D01*
X10118072Y19077931D01*
X10118895Y19080650D01*
X10124469Y19170499D01*
X11670630Y19170499D01*
X11699280Y19003767D01*
X11700396Y19001145D01*
X11700396Y19001144D01*
X11725560Y18942006D01*
X11765518Y18848098D01*
X11865791Y18711842D01*
X11867959Y18710000D01*
X11867961Y18709998D01*
X11869229Y18708921D01*
X11994720Y18602308D01*
X12145389Y18525373D01*
X12148157Y18524696D01*
X12148156Y18524696D01*
X12307598Y18485680D01*
X12307604Y18485679D01*
X12309717Y18485162D01*
X12320388Y18484500D01*
X12442363Y18484500D01*
X12568037Y18499152D01*
X12727061Y18556875D01*
X12729438Y18558434D01*
X12729441Y18558435D01*
X12794387Y18601016D01*
X12868540Y18649633D01*
X12984885Y18772450D01*
X13069856Y18918738D01*
X13071677Y18924751D01*
X13118071Y19077928D01*
X13118072Y19077931D01*
X13118895Y19080650D01*
X13129370Y19249501D01*
X13100720Y19416233D01*
X13096083Y19427132D01*
X13051548Y19531794D01*
X13034482Y19571902D01*
X12934209Y19708158D01*
X12932041Y19710000D01*
X12932039Y19710002D01*
X12889255Y19746350D01*
X12805280Y19817692D01*
X12654611Y19894627D01*
X12629646Y19900736D01*
X12492402Y19934320D01*
X12492396Y19934321D01*
X12490283Y19934838D01*
X12479612Y19935500D01*
X12357637Y19935500D01*
X12231963Y19920848D01*
X12156155Y19893331D01*
X12093056Y19870427D01*
X12072939Y19863125D01*
X12070562Y19861566D01*
X12070559Y19861565D01*
X12045632Y19845222D01*
X11931460Y19770367D01*
X11815115Y19647550D01*
X11730144Y19501262D01*
X11729320Y19498541D01*
X11729319Y19498539D01*
X11683321Y19346666D01*
X11681105Y19339350D01*
X11680929Y19336512D01*
X11672078Y19193834D01*
X11670630Y19170499D01*
X10124469Y19170499D01*
X10129370Y19249501D01*
X10100720Y19416233D01*
X10096083Y19427132D01*
X10051548Y19531794D01*
X10034482Y19571902D01*
X9934209Y19708158D01*
X9932041Y19710000D01*
X9932039Y19710002D01*
X9889255Y19746350D01*
X9805280Y19817692D01*
X9654611Y19894627D01*
X9629646Y19900736D01*
X9492402Y19934320D01*
X9492396Y19934321D01*
X9490283Y19934838D01*
X9479612Y19935500D01*
X9357637Y19935500D01*
X9231963Y19920848D01*
X9156155Y19893331D01*
X9093056Y19870427D01*
X9072939Y19863125D01*
X9070562Y19861566D01*
X9070559Y19861565D01*
X9045632Y19845222D01*
X8931460Y19770367D01*
X8815115Y19647550D01*
X8730144Y19501262D01*
X8729320Y19498541D01*
X8729319Y19498539D01*
X8683321Y19346666D01*
X8681105Y19339350D01*
X8680929Y19336512D01*
X8672078Y19193834D01*
X8670630Y19170499D01*
X6561660Y19170499D01*
X6549332Y19194694D01*
X6524281Y19235574D01*
X6523716Y19236352D01*
X6515845Y19247185D01*
X6515841Y19247190D01*
X6515270Y19247976D01*
X6514638Y19248716D01*
X6484762Y19283695D01*
X6484759Y19283698D01*
X6484140Y19284423D01*
X6406623Y19361940D01*
X6370176Y19393070D01*
X6357774Y19402081D01*
X6316894Y19427132D01*
X6219217Y19476901D01*
X6192535Y19487954D01*
X6175826Y19494876D01*
X6175815Y19494880D01*
X6174934Y19495245D01*
X6174016Y19495543D01*
X6174006Y19495547D01*
X6161274Y19499684D01*
X6161268Y19499686D01*
X6160353Y19499983D01*
X6134578Y19506171D01*
X6114674Y19510950D01*
X6114670Y19510951D01*
X6113732Y19511176D01*
X6112779Y19511327D01*
X6002090Y19528858D01*
X6002086Y19528859D01*
X6001597Y19528936D01*
X5977766Y19531756D01*
X5970101Y19532359D01*
X5969649Y19532377D01*
X5969628Y19532378D01*
X5946610Y19533282D01*
X5946591Y19533282D01*
X5946142Y19533300D01*
X3496200Y19533300D01*
X3483518Y19534970D01*
X3437965Y19547176D01*
X3437963Y19547176D01*
X3435893Y19547731D01*
X3433766Y19547917D01*
X3433761Y19547918D01*
X3267118Y19562497D01*
X3267112Y19562497D01*
X3266052Y19562590D01*
X2403228Y19562590D01*
X2402168Y19562497D01*
X2402162Y19562497D01*
X2235519Y19547918D01*
X2235514Y19547917D01*
X2233387Y19547731D01*
X2231317Y19547176D01*
X2231315Y19547176D01*
X2185762Y19534970D01*
X2173080Y19533300D01*
X2084963Y19533300D01*
X2050315Y19547652D01*
X2035963Y19582300D01*
X2050315Y19616948D01*
X2053594Y19619943D01*
X2323929Y19845222D01*
X2327145Y19847684D01*
X2677085Y20093341D01*
X2680493Y20095529D01*
X2865010Y20203490D01*
X3049533Y20311454D01*
X3053097Y20313346D01*
X3438707Y20498059D01*
X3442426Y20499655D01*
X3841972Y20651892D01*
X3845813Y20653176D01*
X4000636Y20697926D01*
X4256560Y20771898D01*
X4260479Y20772857D01*
X4472391Y20815527D01*
X4679632Y20857256D01*
X4683632Y20857891D01*
X4857044Y20878102D01*
X5108331Y20907389D01*
X5112351Y20907689D01*
X5539696Y20921946D01*
X5543731Y20921913D01*
X5782432Y20910131D01*
X5927179Y20902986D01*
X5936346Y20901657D01*
X5937413Y20901398D01*
X5940622Y20900117D01*
X5945013Y20899686D01*
X5945729Y20899616D01*
X5945735Y20899616D01*
X5946915Y20899500D01*
X5953382Y20899500D01*
X5966225Y20897787D01*
X5968235Y20897241D01*
X5968236Y20897241D01*
X5972374Y20896117D01*
X5976646Y20896476D01*
X5976647Y20896476D01*
X6010568Y20899328D01*
X6014673Y20899500D01*
X15985327Y20899500D01*
X15989432Y20899328D01*
X16023353Y20896476D01*
X16023354Y20896476D01*
X16027626Y20896117D01*
X16043374Y20900394D01*
X16053799Y20902047D01*
X16456269Y20921913D01*
X16460304Y20921946D01*
X16887649Y20907689D01*
G37*
G04 %TD.AperFunction@% jlc*
G04 %TD@% jlc*
G04 %TA.AperFunction,Conductor@% jlc*
G04 %TO.N,/+Vbat@% jlc*
G36*
X5953807Y19227197D02*
G01*
X6065942Y19209437D01*
X6080523Y19204699D01*
X6178200Y19154930D01*
X6190602Y19145919D01*
X6268119Y19068402D01*
X6277130Y19056000D01*
X6326899Y18958323D01*
X6331637Y18943742D01*
X6349397Y18831607D01*
X6350000Y18823942D01*
X6350000Y17650458D01*
X6349397Y17642793D01*
X6331637Y17530658D01*
X6326899Y17516077D01*
X6277130Y17418400D01*
X6268119Y17405998D01*
X6190602Y17328481D01*
X6178200Y17319470D01*
X6080523Y17269701D01*
X6065942Y17264963D01*
X5953807Y17247203D01*
X5946142Y17246600D01*
X1877058Y17246600D01*
X1869393Y17247203D01*
X1757258Y17264963D01*
X1742677Y17269701D01*
X1645000Y17319470D01*
X1632598Y17328481D01*
X1555081Y17405998D01*
X1546070Y17418400D01*
X1496301Y17516077D01*
X1491563Y17530658D01*
X1473803Y17642793D01*
X1473200Y17650458D01*
X1473200Y18823942D01*
X1473803Y18831607D01*
X1491563Y18943742D01*
X1496301Y18958323D01*
X1546070Y19056000D01*
X1555081Y19068402D01*
X1632598Y19145919D01*
X1645000Y19154930D01*
X1742677Y19204699D01*
X1757258Y19209437D01*
X1869393Y19227197D01*
X1877058Y19227800D01*
X5946142Y19227800D01*
X5953807Y19227197D01*
G37*
G04 %TD.AperFunction@% jlc*
G04 %TD@% jlc*
M02*
